<svg width="575" height="307" viewBox="0 0 575 307" fill="none" xmlns="http://www.w3.org/2000/svg">
<rect width="583" height="307" transform="translate(-4)" fill="white"/>
<rect x="36.5" y="3.5" width="537" height="283" stroke="#F1F1F1"/>
<path d="M36.1348 98.6201H577.945" stroke="#F1F1F1"/>
<path d="M36.1348 193.215H577.945" stroke="#F1F1F1"/>
<path d="M220.127 1L220.127 284.964" stroke="#F1F1F1"/>
<path d="M399.146 1L399.146 284.964" stroke="#F1F1F1"/>
<path d="M573.164 3L573.164 286.964" stroke="#F1F1F1"/>
<path d="M26.3407 283.31C26.3407 282.163 26.5274 281.27 26.9007 280.63C27.274 279.983 27.9274 279.66 28.8607 279.66C29.7874 279.66 30.4374 279.983 30.8107 280.63C31.184 281.27 31.3707 282.163 31.3707 283.31C31.3707 284.477 31.184 285.383 30.8107 286.03C30.4374 286.677 29.7874 287 28.8607 287C27.9274 287 27.274 286.677 26.9007 286.03C26.5274 285.383 26.3407 284.477 26.3407 283.31ZM30.4707 283.31C30.4707 282.73 30.4307 282.24 30.3507 281.84C30.2774 281.433 30.1207 281.107 29.8807 280.86C29.6474 280.613 29.3074 280.49 28.8607 280.49C28.4074 280.49 28.0607 280.613 27.8207 280.86C27.5874 281.107 27.4307 281.433 27.3507 281.84C27.2774 282.24 27.2407 282.73 27.2407 283.31C27.2407 283.91 27.2774 284.413 27.3507 284.82C27.4307 285.227 27.5874 285.553 27.8207 285.8C28.0607 286.047 28.4074 286.17 28.8607 286.17C29.3074 286.17 29.6474 286.047 29.8807 285.8C30.1207 285.553 30.2774 285.227 30.3507 284.82C30.4307 284.413 30.4707 283.91 30.4707 283.31Z" fill="#4E4E4E"/>
<path d="M16.6183 189.6V188.77H18.4983V196H17.5783V189.6H16.6183ZM20.0614 192.31C20.0614 191.163 20.2481 190.27 20.6214 189.63C20.9947 188.983 21.6481 188.66 22.5814 188.66C23.5081 188.66 24.1581 188.983 24.5314 189.63C24.9047 190.27 25.0914 191.163 25.0914 192.31C25.0914 193.477 24.9047 194.383 24.5314 195.03C24.1581 195.677 23.5081 196 22.5814 196C21.6481 196 20.9947 195.677 20.6214 195.03C20.2481 194.383 20.0614 193.477 20.0614 192.31ZM24.1914 192.31C24.1914 191.73 24.1514 191.24 24.0714 190.84C23.9981 190.433 23.8414 190.107 23.6014 189.86C23.3681 189.613 23.0281 189.49 22.5814 189.49C22.1281 189.49 21.7814 189.613 21.5414 189.86C21.3081 190.107 21.1514 190.433 21.0714 190.84C20.9981 191.24 20.9614 191.73 20.9614 192.31C20.9614 192.91 20.9981 193.413 21.0714 193.82C21.1514 194.227 21.3081 194.553 21.5414 194.8C21.7814 195.047 22.1281 195.17 22.5814 195.17C23.0281 195.17 23.3681 195.047 23.6014 194.8C23.8414 194.553 23.9981 194.227 24.0714 193.82C24.1514 193.413 24.1914 192.91 24.1914 192.31ZM26.3407 192.31C26.3407 191.163 26.5274 190.27 26.9007 189.63C27.274 188.983 27.9274 188.66 28.8607 188.66C29.7874 188.66 30.4374 188.983 30.8107 189.63C31.184 190.27 31.3707 191.163 31.3707 192.31C31.3707 193.477 31.184 194.383 30.8107 195.03C30.4374 195.677 29.7874 196 28.8607 196C27.9274 196 27.274 195.677 26.9007 195.03C26.5274 194.383 26.3407 193.477 26.3407 192.31ZM30.4707 192.31C30.4707 191.73 30.4307 191.24 30.3507 190.84C30.2774 190.433 30.1207 190.107 29.8807 189.86C29.6474 189.613 29.3074 189.49 28.8607 189.49C28.4074 189.49 28.0607 189.613 27.8207 189.86C27.5874 190.107 27.4307 190.433 27.3507 190.84C27.2774 191.24 27.2407 191.73 27.2407 192.31C27.2407 192.91 27.2774 193.413 27.3507 193.82C27.4307 194.227 27.5874 194.553 27.8207 194.8C28.0607 195.047 28.4074 195.17 28.8607 195.17C29.3074 195.17 29.6474 195.047 29.8807 194.8C30.1207 194.553 30.2774 194.227 30.3507 193.82C30.4307 193.413 30.4707 192.91 30.4707 192.31Z" fill="#4E4E4E"/>
<path d="M18.3921 95.56H14.8821V97.84C15.0354 97.6267 15.2621 97.4533 15.5621 97.32C15.8621 97.18 16.1854 97.11 16.5321 97.11C17.0854 97.11 17.5354 97.2267 17.8821 97.46C18.2288 97.6867 18.4754 97.9833 18.6221 98.35C18.7754 98.71 18.8521 99.0933 18.8521 99.5C18.8521 99.98 18.7621 100.41 18.5821 100.79C18.4021 101.17 18.1254 101.47 17.7521 101.69C17.3854 101.91 16.9288 102.02 16.3821 102.02C15.6821 102.02 15.1154 101.84 14.6821 101.48C14.2488 101.12 13.9854 100.64 13.8921 100.04H14.7821C14.8688 100.42 15.0521 100.717 15.3321 100.93C15.6121 101.143 15.9654 101.25 16.3921 101.25C16.9188 101.25 17.3154 101.093 17.5821 100.78C17.8488 100.46 17.9821 100.04 17.9821 99.52C17.9821 99 17.8488 98.6 17.5821 98.32C17.3154 98.0333 16.9221 97.89 16.4021 97.89C16.0488 97.89 15.7388 97.9767 15.4721 98.15C15.2121 98.3167 15.0221 98.5467 14.9021 98.84H14.0421V94.76H18.3921V95.56ZM20.0614 98.31C20.0614 97.1633 20.2481 96.27 20.6214 95.63C20.9947 94.9833 21.6481 94.66 22.5814 94.66C23.5081 94.66 24.1581 94.9833 24.5314 95.63C24.9047 96.27 25.0914 97.1633 25.0914 98.31C25.0914 99.4767 24.9047 100.383 24.5314 101.03C24.1581 101.677 23.5081 102 22.5814 102C21.6481 102 20.9947 101.677 20.6214 101.03C20.2481 100.383 20.0614 99.4767 20.0614 98.31ZM24.1914 98.31C24.1914 97.73 24.1514 97.24 24.0714 96.84C23.9981 96.4333 23.8414 96.1067 23.6014 95.86C23.3681 95.6133 23.0281 95.49 22.5814 95.49C22.1281 95.49 21.7814 95.6133 21.5414 95.86C21.3081 96.1067 21.1514 96.4333 21.0714 96.84C20.9981 97.24 20.9614 97.73 20.9614 98.31C20.9614 98.91 20.9981 99.4133 21.0714 99.82C21.1514 100.227 21.3081 100.553 21.5414 100.8C21.7814 101.047 22.1281 101.17 22.5814 101.17C23.0281 101.17 23.3681 101.047 23.6014 100.8C23.8414 100.553 23.9981 100.227 24.0714 99.82C24.1514 99.4133 24.1914 98.91 24.1914 98.31ZM26.3407 98.31C26.3407 97.1633 26.5274 96.27 26.9007 95.63C27.274 94.9833 27.9274 94.66 28.8607 94.66C29.7874 94.66 30.4374 94.9833 30.8107 95.63C31.184 96.27 31.3707 97.1633 31.3707 98.31C31.3707 99.4767 31.184 100.383 30.8107 101.03C30.4374 101.677 29.7874 102 28.8607 102C27.9274 102 27.274 101.677 26.9007 101.03C26.5274 100.383 26.3407 99.4767 26.3407 98.31ZM30.4707 98.31C30.4707 97.73 30.4307 97.24 30.3507 96.84C30.2774 96.4333 30.1207 96.1067 29.8807 95.86C29.6474 95.6133 29.3074 95.49 28.8607 95.49C28.4074 95.49 28.0607 95.6133 27.8207 95.86C27.5874 96.1067 27.4307 96.4333 27.3507 96.84C27.2774 97.24 27.2407 97.73 27.2407 98.31C27.2407 98.91 27.2774 99.4133 27.3507 99.82C27.4307 100.227 27.5874 100.553 27.8207 100.8C28.0607 101.047 28.4074 101.17 28.8607 101.17C29.3074 101.17 29.6474 101.047 29.8807 100.8C30.1207 100.553 30.2774 100.227 30.3507 99.82C30.4307 99.4133 30.4707 98.91 30.4707 98.31Z" fill="#4E4E4E"/>
<path d="M10.339 7.6V6.77H12.219V14H11.299V7.6H10.339ZM13.7821 10.31C13.7821 9.16333 13.9688 8.27 14.3421 7.63C14.7154 6.98333 15.3688 6.66 16.3021 6.66C17.2288 6.66 17.8788 6.98333 18.2521 7.63C18.6254 8.27 18.8121 9.16333 18.8121 10.31C18.8121 11.4767 18.6254 12.3833 18.2521 13.03C17.8788 13.6767 17.2288 14 16.3021 14C15.3688 14 14.7154 13.6767 14.3421 13.03C13.9688 12.3833 13.7821 11.4767 13.7821 10.31ZM17.9121 10.31C17.9121 9.73 17.8721 9.24 17.7921 8.84C17.7188 8.43333 17.5621 8.10667 17.3221 7.86C17.0888 7.61333 16.7488 7.49 16.3021 7.49C15.8488 7.49 15.5021 7.61333 15.2621 7.86C15.0288 8.10667 14.8721 8.43333 14.7921 8.84C14.7188 9.24 14.6821 9.73 14.6821 10.31C14.6821 10.91 14.7188 11.4133 14.7921 11.82C14.8721 12.2267 15.0288 12.5533 15.2621 12.8C15.5021 13.0467 15.8488 13.17 16.3021 13.17C16.7488 13.17 17.0888 13.0467 17.3221 12.8C17.5621 12.5533 17.7188 12.2267 17.7921 11.82C17.8721 11.4133 17.9121 10.91 17.9121 10.31ZM20.0614 10.31C20.0614 9.16333 20.2481 8.27 20.6214 7.63C20.9947 6.98333 21.6481 6.66 22.5814 6.66C23.5081 6.66 24.1581 6.98333 24.5314 7.63C24.9047 8.27 25.0914 9.16333 25.0914 10.31C25.0914 11.4767 24.9047 12.3833 24.5314 13.03C24.1581 13.6767 23.5081 14 22.5814 14C21.6481 14 20.9947 13.6767 20.6214 13.03C20.2481 12.3833 20.0614 11.4767 20.0614 10.31ZM24.1914 10.31C24.1914 9.73 24.1514 9.24 24.0714 8.84C23.9981 8.43333 23.8414 8.10667 23.6014 7.86C23.3681 7.61333 23.0281 7.49 22.5814 7.49C22.1281 7.49 21.7814 7.61333 21.5414 7.86C21.3081 8.10667 21.1514 8.43333 21.0714 8.84C20.9981 9.24 20.9614 9.73 20.9614 10.31C20.9614 10.91 20.9981 11.4133 21.0714 11.82C21.1514 12.2267 21.3081 12.5533 21.5414 12.8C21.7814 13.0467 22.1281 13.17 22.5814 13.17C23.0281 13.17 23.3681 13.0467 23.6014 12.8C23.8414 12.5533 23.9981 12.2267 24.0714 11.82C24.1514 11.4133 24.1914 10.91 24.1914 10.31ZM26.3407 10.31C26.3407 9.16333 26.5274 8.27 26.9007 7.63C27.274 6.98333 27.9274 6.66 28.8607 6.66C29.7874 6.66 30.4374 6.98333 30.8107 7.63C31.184 8.27 31.3707 9.16333 31.3707 10.31C31.3707 11.4767 31.184 12.3833 30.8107 13.03C30.4374 13.6767 29.7874 14 28.8607 14C27.9274 14 27.274 13.6767 26.9007 13.03C26.5274 12.3833 26.3407 11.4767 26.3407 10.31ZM30.4707 10.31C30.4707 9.73 30.4307 9.24 30.3507 8.84C30.2774 8.43333 30.1207 8.10667 29.8807 7.86C29.6474 7.61333 29.3074 7.49 28.8607 7.49C28.4074 7.49 28.0607 7.61333 27.8207 7.86C27.5874 8.10667 27.4307 8.43333 27.3507 8.84C27.2774 9.24 27.2407 9.73 27.2407 10.31C27.2407 10.91 27.2774 11.4133 27.3507 11.82C27.4307 12.2267 27.5874 12.5533 27.8207 12.8C28.0607 13.0467 28.4074 13.17 28.8607 13.17C29.3074 13.17 29.6474 13.0467 29.8807 12.8C30.1207 12.5533 30.2774 12.2267 30.3507 11.82C30.4307 11.4133 30.4707 10.91 30.4707 10.31Z" fill="#4E4E4E"/>
<path d="M116.201 299.97V302.3H118.741V303.05H116.201V305.45H119.041V306.2H115.291V299.22H119.041V299.97H116.201ZM123.088 300.62C123.755 300.62 124.295 300.824 124.708 301.23C125.122 301.63 125.328 302.21 125.328 302.97V306.2H124.428V303.1C124.428 302.554 124.292 302.137 124.018 301.85C123.745 301.557 123.372 301.41 122.898 301.41C122.418 301.41 122.035 301.56 121.748 301.86C121.468 302.16 121.328 302.597 121.328 303.17V306.2H120.418V300.72H121.328V301.5C121.508 301.22 121.752 301.004 122.058 300.85C122.372 300.697 122.715 300.62 123.088 300.62ZM131.815 303.25C131.815 303.424 131.805 303.607 131.785 303.8H127.405C127.438 304.34 127.622 304.764 127.955 305.07C128.295 305.37 128.705 305.52 129.185 305.52C129.578 305.52 129.905 305.43 130.165 305.25C130.432 305.064 130.618 304.817 130.725 304.51H131.705C131.558 305.037 131.265 305.467 130.825 305.8C130.385 306.127 129.838 306.29 129.185 306.29C128.665 306.29 128.198 306.174 127.785 305.94C127.378 305.707 127.058 305.377 126.825 304.95C126.592 304.517 126.475 304.017 126.475 303.45C126.475 302.884 126.588 302.387 126.815 301.96C127.042 301.534 127.358 301.207 127.765 300.98C128.178 300.747 128.652 300.63 129.185 300.63C129.705 300.63 130.165 300.744 130.565 300.97C130.965 301.197 131.272 301.51 131.485 301.91C131.705 302.304 131.815 302.75 131.815 303.25ZM130.875 303.06C130.875 302.714 130.798 302.417 130.645 302.17C130.492 301.917 130.282 301.727 130.015 301.6C129.755 301.467 129.465 301.4 129.145 301.4C128.685 301.4 128.292 301.547 127.965 301.84C127.645 302.134 127.462 302.54 127.415 303.06H130.875ZM133.926 301.61C134.086 301.297 134.313 301.054 134.606 300.88C134.906 300.707 135.269 300.62 135.696 300.62V301.56H135.456C134.436 301.56 133.926 302.114 133.926 303.22V306.2H133.016V300.72H133.926V301.61ZM139.137 306.29C138.623 306.29 138.157 306.174 137.737 305.94C137.323 305.707 136.997 305.377 136.757 304.95C136.523 304.517 136.407 304.017 136.407 303.45C136.407 302.89 136.527 302.397 136.767 301.97C137.013 301.537 137.347 301.207 137.767 300.98C138.187 300.747 138.657 300.63 139.177 300.63C139.697 300.63 140.167 300.747 140.587 300.98C141.007 301.207 141.337 301.534 141.577 301.96C141.823 302.387 141.947 302.884 141.947 303.45C141.947 304.017 141.82 304.517 141.567 304.95C141.32 305.377 140.983 305.707 140.557 305.94C140.13 306.174 139.657 306.29 139.137 306.29ZM139.137 305.49C139.463 305.49 139.77 305.414 140.057 305.26C140.343 305.107 140.573 304.877 140.747 304.57C140.927 304.264 141.017 303.89 141.017 303.45C141.017 303.01 140.93 302.637 140.757 302.33C140.583 302.024 140.357 301.797 140.077 301.65C139.797 301.497 139.493 301.42 139.167 301.42C138.833 301.42 138.527 301.497 138.247 301.65C137.973 301.797 137.753 302.024 137.587 302.33C137.42 302.637 137.337 303.01 137.337 303.45C137.337 303.897 137.417 304.274 137.577 304.58C137.743 304.887 137.963 305.117 138.237 305.27C138.51 305.417 138.81 305.49 139.137 305.49Z" fill="#4E4E4E"/>
<path d="M296.289 299.23V299.97H293.259V302.32H295.719V303.06H293.259V306.2H292.349V299.23H296.289ZM302.388 303.25C302.388 303.424 302.378 303.607 302.358 303.8H297.978C298.011 304.34 298.195 304.764 298.528 305.07C298.868 305.37 299.278 305.52 299.758 305.52C300.151 305.52 300.478 305.43 300.738 305.25C301.005 305.064 301.191 304.817 301.298 304.51H302.278C302.131 305.037 301.838 305.467 301.398 305.8C300.958 306.127 300.411 306.29 299.758 306.29C299.238 306.29 298.771 306.174 298.358 305.94C297.951 305.707 297.631 305.377 297.398 304.95C297.165 304.517 297.048 304.017 297.048 303.45C297.048 302.884 297.161 302.387 297.388 301.96C297.615 301.534 297.931 301.207 298.338 300.98C298.751 300.747 299.225 300.63 299.758 300.63C300.278 300.63 300.738 300.744 301.138 300.97C301.538 301.197 301.845 301.51 302.058 301.91C302.278 302.304 302.388 302.75 302.388 303.25ZM301.448 303.06C301.448 302.714 301.371 302.417 301.218 302.17C301.065 301.917 300.855 301.727 300.588 301.6C300.328 301.467 300.038 301.4 299.718 301.4C299.258 301.4 298.865 301.547 298.538 301.84C298.218 302.134 298.035 302.54 297.988 303.06H301.448ZM304.499 301.74C304.686 301.414 304.959 301.147 305.319 300.94C305.679 300.734 306.089 300.63 306.549 300.63C307.043 300.63 307.486 300.747 307.879 300.98C308.273 301.214 308.583 301.544 308.809 301.97C309.036 302.39 309.149 302.88 309.149 303.44C309.149 303.994 309.036 304.487 308.809 304.92C308.583 305.354 308.269 305.69 307.869 305.93C307.476 306.17 307.036 306.29 306.549 306.29C306.076 306.29 305.659 306.187 305.299 305.98C304.946 305.774 304.679 305.51 304.499 305.19V306.2H303.589V298.8H304.499V301.74ZM308.219 303.44C308.219 303.027 308.136 302.667 307.969 302.36C307.803 302.054 307.576 301.82 307.289 301.66C307.009 301.5 306.699 301.42 306.359 301.42C306.026 301.42 305.716 301.504 305.429 301.67C305.149 301.83 304.923 302.067 304.749 302.38C304.583 302.687 304.499 303.044 304.499 303.45C304.499 303.864 304.583 304.227 304.749 304.54C304.923 304.847 305.149 305.084 305.429 305.25C305.716 305.41 306.026 305.49 306.359 305.49C306.699 305.49 307.009 305.41 307.289 305.25C307.576 305.084 307.803 304.847 307.969 304.54C308.136 304.227 308.219 303.86 308.219 303.44ZM311.257 301.61C311.417 301.297 311.644 301.054 311.937 300.88C312.237 300.707 312.6 300.62 313.027 300.62V301.56H312.787C311.767 301.56 311.257 302.114 311.257 303.22V306.2H310.347V300.72H311.257V301.61ZM319.078 303.25C319.078 303.424 319.068 303.607 319.048 303.8H314.668C314.701 304.34 314.884 304.764 315.218 305.07C315.558 305.37 315.968 305.52 316.448 305.52C316.841 305.52 317.168 305.43 317.428 305.25C317.694 305.064 317.881 304.817 317.988 304.51H318.968C318.821 305.037 318.528 305.467 318.088 305.8C317.648 306.127 317.101 306.29 316.448 306.29C315.928 306.29 315.461 306.174 315.048 305.94C314.641 305.707 314.321 305.377 314.088 304.95C313.854 304.517 313.738 304.017 313.738 303.45C313.738 302.884 313.851 302.387 314.078 301.96C314.304 301.534 314.621 301.207 315.028 300.98C315.441 300.747 315.914 300.63 316.448 300.63C316.968 300.63 317.428 300.744 317.828 300.97C318.228 301.197 318.534 301.51 318.748 301.91C318.968 302.304 319.078 302.75 319.078 303.25ZM318.138 303.06C318.138 302.714 318.061 302.417 317.908 302.17C317.754 301.917 317.544 301.727 317.278 301.6C317.018 301.467 316.728 301.4 316.408 301.4C315.948 301.4 315.554 301.547 315.228 301.84C314.908 302.134 314.724 302.54 314.678 303.06H318.138ZM321.189 301.61C321.349 301.297 321.575 301.054 321.869 300.88C322.169 300.707 322.532 300.62 322.959 300.62V301.56H322.719C321.699 301.56 321.189 302.114 321.189 303.22V306.2H320.279V300.72H321.189V301.61ZM326.399 306.29C325.886 306.29 325.419 306.174 324.999 305.94C324.586 305.707 324.259 305.377 324.019 304.95C323.786 304.517 323.669 304.017 323.669 303.45C323.669 302.89 323.789 302.397 324.029 301.97C324.276 301.537 324.609 301.207 325.029 300.98C325.449 300.747 325.919 300.63 326.439 300.63C326.959 300.63 327.429 300.747 327.849 300.98C328.269 301.207 328.599 301.534 328.839 301.96C329.086 302.387 329.209 302.884 329.209 303.45C329.209 304.017 329.083 304.517 328.829 304.95C328.583 305.377 328.246 305.707 327.819 305.94C327.393 306.174 326.919 306.29 326.399 306.29ZM326.399 305.49C326.726 305.49 327.033 305.414 327.319 305.26C327.606 305.107 327.836 304.877 328.009 304.57C328.189 304.264 328.279 303.89 328.279 303.45C328.279 303.01 328.193 302.637 328.019 302.33C327.846 302.024 327.619 301.797 327.339 301.65C327.059 301.497 326.756 301.42 326.429 301.42C326.096 301.42 325.789 301.497 325.509 301.65C325.236 301.797 325.016 302.024 324.849 302.33C324.683 302.637 324.599 303.01 324.599 303.45C324.599 303.897 324.679 304.274 324.839 304.58C325.006 304.887 325.226 305.117 325.499 305.27C325.773 305.417 326.073 305.49 326.399 305.49Z" fill="#4E4E4E"/>
<path d="M485.081 299.28V306.2H484.171V301.04L481.871 306.2H481.231L478.921 301.03V306.2H478.011V299.28H478.991L481.551 305L484.111 299.28H485.081ZM486.284 303.44C486.284 302.88 486.398 302.39 486.624 301.97C486.851 301.544 487.161 301.214 487.554 300.98C487.954 300.747 488.398 300.63 488.884 300.63C489.364 300.63 489.781 300.734 490.134 300.94C490.488 301.147 490.751 301.407 490.924 301.72V300.72H491.844V306.2H490.924V305.18C490.744 305.5 490.474 305.767 490.114 305.98C489.761 306.187 489.348 306.29 488.874 306.29C488.388 306.29 487.948 306.17 487.554 305.93C487.161 305.69 486.851 305.354 486.624 304.92C486.398 304.487 486.284 303.994 486.284 303.44ZM490.924 303.45C490.924 303.037 490.841 302.677 490.674 302.37C490.508 302.064 490.281 301.83 489.994 301.67C489.714 301.504 489.404 301.42 489.064 301.42C488.724 301.42 488.414 301.5 488.134 301.66C487.854 301.82 487.631 302.054 487.464 302.36C487.298 302.667 487.214 303.027 487.214 303.44C487.214 303.86 487.298 304.227 487.464 304.54C487.631 304.847 487.854 305.084 488.134 305.25C488.414 305.41 488.724 305.49 489.064 305.49C489.404 305.49 489.714 305.41 489.994 305.25C490.281 305.084 490.508 304.847 490.674 304.54C490.841 304.227 490.924 303.864 490.924 303.45ZM494.292 301.61C494.452 301.297 494.679 301.054 494.972 300.88C495.272 300.707 495.636 300.62 496.062 300.62V301.56H495.822C494.802 301.56 494.292 302.114 494.292 303.22V306.2H493.382V300.72H494.292V301.61ZM497.793 305.45H500.483V306.2H496.753V305.45L499.413 301.46H496.773V300.72H500.463V301.46L497.793 305.45ZM504.054 306.29C503.54 306.29 503.074 306.174 502.654 305.94C502.24 305.707 501.914 305.377 501.674 304.95C501.44 304.517 501.324 304.017 501.324 303.45C501.324 302.89 501.444 302.397 501.684 301.97C501.93 301.537 502.264 301.207 502.684 300.98C503.104 300.747 503.574 300.63 504.094 300.63C504.614 300.63 505.084 300.747 505.504 300.98C505.924 301.207 506.254 301.534 506.494 301.96C506.74 302.387 506.864 302.884 506.864 303.45C506.864 304.017 506.737 304.517 506.484 304.95C506.237 305.377 505.9 305.707 505.474 305.94C505.047 306.174 504.574 306.29 504.054 306.29ZM504.054 305.49C504.38 305.49 504.687 305.414 504.974 305.26C505.26 305.107 505.49 304.877 505.664 304.57C505.844 304.264 505.934 303.89 505.934 303.45C505.934 303.01 505.847 302.637 505.674 302.33C505.5 302.024 505.274 301.797 504.994 301.65C504.714 301.497 504.41 301.42 504.084 301.42C503.75 301.42 503.444 301.497 503.164 301.65C502.89 301.797 502.67 302.024 502.504 302.33C502.337 302.637 502.254 303.01 502.254 303.45C502.254 303.897 502.334 304.274 502.494 304.58C502.66 304.887 502.88 305.117 503.154 305.27C503.427 305.417 503.727 305.49 504.054 305.49Z" fill="#4E4E4E"/>
<rect x="107.953" y="62.7139" width="17.4046" height="223.209" fill="#35CC29"/>
<rect x="133.809" y="27" width="17.4046" height="258.923" fill="#03A9F4"/>
<rect x="317.27" y="62.7139" width="17.4046" height="223.209" fill="#03A9F4"/>
<rect x="286.443" y="140.093" width="22.3774" height="145.83" fill="#35CC29"/>
<rect x="496.443" y="242.634" width="19.891" height="43.2891" fill="#03A9F4"/>
<rect x="468.104" y="107.355" width="19.891" height="178.568" fill="#35CC29"/>
</svg>
