<svg width="247" height="18" viewBox="0 0 247 18" fill="none" xmlns="http://www.w3.org/2000/svg">
              <circle cx="8" cy="9" r="4" fill="#35CC29"/>
              <path d="M22.53 5.53L19.9 12.5H18.85L16.22 5.53H17.19L19.38 11.54L21.57 5.53H22.53ZM23.9978 6.13C23.8245 6.13 23.6778 6.07 23.5578 5.95C23.4378 5.83 23.3778 5.68333 23.3778 5.51C23.3778 5.33667 23.4378 5.19 23.5578 5.07C23.6778 4.95 23.8245 4.89 23.9978 4.89C24.1645 4.89 24.3045 4.95 24.4178 5.07C24.5378 5.19 24.5978 5.33667 24.5978 5.51C24.5978 5.68333 24.5378 5.83 24.4178 5.95C24.3045 6.07 24.1645 6.13 23.9978 6.13ZM24.4378 7.02V12.5H23.5278V7.02H24.4378ZM27.9288 12.59C27.5088 12.59 27.1321 12.52 26.7988 12.38C26.4654 12.2333 26.2021 12.0333 26.0088 11.78C25.8154 11.52 25.7088 11.2233 25.6888 10.89H26.6288C26.6554 11.1633 26.7821 11.3867 27.0088 11.56C27.2421 11.7333 27.5454 11.82 27.9188 11.82C28.2654 11.82 28.5388 11.7433 28.7388 11.59C28.9388 11.4367 29.0388 11.2433 29.0388 11.01C29.0388 10.77 28.9321 10.5933 28.7188 10.48C28.5054 10.36 28.1754 10.2433 27.7288 10.13C27.3221 10.0233 26.9888 9.91667 26.7288 9.81C26.4754 9.69667 26.2554 9.53333 26.0688 9.32C25.8888 9.1 25.7988 8.81333 25.7988 8.46C25.7988 8.18 25.8821 7.92333 26.0488 7.69C26.2154 7.45667 26.4521 7.27333 26.7588 7.14C27.0654 7 27.4154 6.93 27.8088 6.93C28.4154 6.93 28.9054 7.08333 29.2788 7.39C29.6521 7.69667 29.8521 8.11667 29.8788 8.65H28.9688C28.9488 8.36333 28.8321 8.13333 28.6188 7.96C28.4121 7.78667 28.1321 7.7 27.7788 7.7C27.4521 7.7 27.1921 7.77 26.9988 7.91C26.8054 8.05 26.7088 8.23333 26.7088 8.46C26.7088 8.64 26.7654 8.79 26.8788 8.91C26.9988 9.02333 27.1454 9.11667 27.3188 9.19C27.4988 9.25667 27.7454 9.33333 28.0588 9.42C28.4521 9.52667 28.7721 9.63333 29.0188 9.74C29.2654 9.84 29.4754 9.99333 29.6488 10.2C29.8288 10.4067 29.9221 10.6767 29.9288 11.01C29.9288 11.31 29.8454 11.58 29.6788 11.82C29.5121 12.06 29.2754 12.25 28.9688 12.39C28.6688 12.5233 28.3221 12.59 27.9288 12.59ZM36.0734 7.02V12.5H35.1634V11.69C34.99 11.97 34.7467 12.19 34.4334 12.35C34.1267 12.5033 33.7867 12.58 33.4134 12.58C32.9867 12.58 32.6034 12.4933 32.2634 12.32C31.9234 12.14 31.6534 11.8733 31.4534 11.52C31.26 11.1667 31.1634 10.7367 31.1634 10.23V7.02H32.0634V10.11C32.0634 10.65 32.2 11.0667 32.4734 11.36C32.7467 11.6467 33.12 11.79 33.5934 11.79C34.08 11.79 34.4634 11.64 34.7434 11.34C35.0234 11.04 35.1634 10.6033 35.1634 10.03V7.02H36.0734ZM37.2698 9.74C37.2698 9.18 37.3832 8.69 37.6098 8.27C37.8365 7.84333 38.1465 7.51333 38.5398 7.28C38.9398 7.04667 39.3832 6.93 39.8698 6.93C40.3498 6.93 40.7665 7.03333 41.1198 7.24C41.4732 7.44667 41.7365 7.70667 41.9098 8.02V7.02H42.8298V12.5H41.9098V11.48C41.7298 11.8 41.4598 12.0667 41.0998 12.28C40.7465 12.4867 40.3332 12.59 39.8598 12.59C39.3732 12.59 38.9332 12.47 38.5398 12.23C38.1465 11.99 37.8365 11.6533 37.6098 11.22C37.3832 10.7867 37.2698 10.2933 37.2698 9.74ZM41.9098 9.75C41.9098 9.33667 41.8265 8.97667 41.6598 8.67C41.4932 8.36333 41.2665 8.13 40.9798 7.97C40.6998 7.80333 40.3898 7.72 40.0498 7.72C39.7098 7.72 39.3998 7.8 39.1198 7.96C38.8398 8.12 38.6165 8.35333 38.4498 8.66C38.2832 8.96667 38.1998 9.32667 38.1998 9.74C38.1998 10.16 38.2832 10.5267 38.4498 10.84C38.6165 11.1467 38.8398 11.3833 39.1198 11.55C39.3998 11.71 39.7098 11.79 40.0498 11.79C40.3898 11.79 40.6998 11.71 40.9798 11.55C41.2665 11.3833 41.4932 11.1467 41.6598 10.84C41.8265 10.5267 41.9098 10.1633 41.9098 9.75ZM45.2777 5.1V12.5H44.3677V5.1H45.2777ZM47.2986 6.13C47.1253 6.13 46.9786 6.07 46.8586 5.95C46.7386 5.83 46.6786 5.68333 46.6786 5.51C46.6786 5.33667 46.7386 5.19 46.8586 5.07C46.9786 4.95 47.1253 4.89 47.2986 4.89C47.4653 4.89 47.6053 4.95 47.7186 5.07C47.8386 5.19 47.8986 5.33667 47.8986 5.51C47.8986 5.68333 47.8386 5.83 47.7186 5.95C47.6053 6.07 47.4653 6.13 47.2986 6.13ZM47.7386 7.02V12.5H46.8286V7.02H47.7386ZM49.9695 11.75H52.6595V12.5H48.9295V11.75L51.5895 7.76H48.9495V7.02H52.6395V7.76L49.9695 11.75ZM53.5003 9.74C53.5003 9.18 53.6136 8.69 53.8403 8.27C54.067 7.84333 54.377 7.51333 54.7703 7.28C55.1703 7.04667 55.6136 6.93 56.1003 6.93C56.5803 6.93 56.997 7.03333 57.3503 7.24C57.7036 7.44667 57.967 7.70667 58.1403 8.02V7.02H59.0603V12.5H58.1403V11.48C57.9603 11.8 57.6903 12.0667 57.3303 12.28C56.977 12.4867 56.5636 12.59 56.0903 12.59C55.6036 12.59 55.1636 12.47 54.7703 12.23C54.377 11.99 54.067 11.6533 53.8403 11.22C53.6136 10.7867 53.5003 10.2933 53.5003 9.74ZM58.1403 9.75C58.1403 9.33667 58.057 8.97667 57.8903 8.67C57.7236 8.36333 57.497 8.13 57.2103 7.97C56.9303 7.80333 56.6203 7.72 56.2803 7.72C55.9403 7.72 55.6303 7.8 55.3503 7.96C55.0703 8.12 54.847 8.35333 54.6803 8.66C54.5136 8.96667 54.4303 9.32667 54.4303 9.74C54.4303 10.16 54.5136 10.5267 54.6803 10.84C54.847 11.1467 55.0703 11.3833 55.3503 11.55C55.6303 11.71 55.9403 11.79 56.2803 11.79C56.6203 11.79 56.9303 11.71 57.2103 11.55C57.497 11.3833 57.7236 11.1467 57.8903 10.84C58.057 10.5267 58.1403 10.1633 58.1403 9.75ZM60.2581 9.75C60.2581 9.18333 60.3715 8.69 60.5981 8.27C60.8248 7.84333 61.1381 7.51333 61.5381 7.28C61.9448 7.04667 62.4081 6.93 62.9281 6.93C63.6015 6.93 64.1548 7.09333 64.5881 7.42C65.0281 7.74667 65.3181 8.2 65.4581 8.78H64.4781C64.3848 8.44667 64.2015 8.18333 63.9281 7.99C63.6615 7.79667 63.3281 7.7 62.9281 7.7C62.4081 7.7 61.9881 7.88 61.6681 8.24C61.3481 8.59333 61.1881 9.09667 61.1881 9.75C61.1881 10.41 61.3481 10.92 61.6681 11.28C61.9881 11.64 62.4081 11.82 62.9281 11.82C63.3281 11.82 63.6615 11.7267 63.9281 11.54C64.1948 11.3533 64.3781 11.0867 64.4781 10.74H65.4581C65.3115 11.3 65.0181 11.75 64.5781 12.09C64.1381 12.4233 63.5881 12.59 62.9281 12.59C62.4081 12.59 61.9448 12.4733 61.5381 12.24C61.1381 12.0067 60.8248 11.6767 60.5981 11.25C60.3715 10.8233 60.2581 10.3233 60.2581 9.75ZM67.1423 6.13C66.969 6.13 66.8223 6.07 66.7023 5.95C66.5823 5.83 66.5223 5.68333 66.5223 5.51C66.5223 5.33667 66.5823 5.19 66.7023 5.07C66.8223 4.95 66.969 4.89 67.1423 4.89C67.309 4.89 67.449 4.95 67.5623 5.07C67.6823 5.19 67.7423 5.33667 67.7423 5.51C67.7423 5.68333 67.6823 5.83 67.5623 5.95C67.449 6.07 67.309 6.13 67.1423 6.13ZM67.5823 7.02V12.5H66.6723V7.02H67.5823ZM71.5233 12.59C71.0099 12.59 70.5433 12.4733 70.1233 12.24C69.7099 12.0067 69.3833 11.6767 69.1433 11.25C68.9099 10.8167 68.7933 10.3167 68.7933 9.75C68.7933 9.19 68.9133 8.69667 69.1533 8.27C69.3999 7.83667 69.7333 7.50667 70.1533 7.28C70.5733 7.04667 71.0433 6.93 71.5633 6.93C72.0833 6.93 72.5533 7.04667 72.9733 7.28C73.3933 7.50667 73.7233 7.83333 73.9633 8.26C74.2099 8.68667 74.3333 9.18333 74.3333 9.75C74.3333 10.3167 74.2066 10.8167 73.9533 11.25C73.7066 11.6767 73.3699 12.0067 72.9433 12.24C72.5166 12.4733 72.0433 12.59 71.5233 12.59ZM71.5233 11.79C71.8499 11.79 72.1566 11.7133 72.4433 11.56C72.7299 11.4067 72.9599 11.1767 73.1333 10.87C73.3133 10.5633 73.4033 10.19 73.4033 9.75C73.4033 9.31 73.3166 8.93667 73.1433 8.63C72.9699 8.32333 72.7433 8.09667 72.4633 7.95C72.1833 7.79667 71.8799 7.72 71.5533 7.72C71.2199 7.72 70.9133 7.79667 70.6333 7.95C70.3599 8.09667 70.1399 8.32333 69.9733 8.63C69.8066 8.93667 69.7233 9.31 69.7233 9.75C69.7233 10.1967 69.8033 10.5733 69.9633 10.88C70.1299 11.1867 70.3499 11.4167 70.6233 11.57C70.8966 11.7167 71.1966 11.79 71.5233 11.79ZM78.1998 6.92C78.8664 6.92 79.4064 7.12333 79.8198 7.53C80.2331 7.93 80.4398 8.51 80.4398 9.27V12.5H79.5398V9.4C79.5398 8.85333 79.4031 8.43667 79.1298 8.15C78.8564 7.85667 78.4831 7.71 78.0098 7.71C77.5298 7.71 77.1464 7.86 76.8598 8.16C76.5798 8.46 76.4398 8.89667 76.4398 9.47V12.5H75.5298V7.02H76.4398V7.8C76.6198 7.52 76.8631 7.30333 77.1698 7.15C77.4831 6.99667 77.8264 6.92 78.1998 6.92ZM86.9263 9.55C86.9263 9.72333 86.9163 9.90667 86.8963 10.1H82.5163C82.5496 10.64 82.7329 11.0633 83.0663 11.37C83.4063 11.67 83.8163 11.82 84.2963 11.82C84.6896 11.82 85.0163 11.73 85.2763 11.55C85.5429 11.3633 85.7296 11.1167 85.8363 10.81H86.8163C86.6696 11.3367 86.3763 11.7667 85.9363 12.1C85.4963 12.4267 84.9496 12.59 84.2963 12.59C83.7763 12.59 83.3096 12.4733 82.8963 12.24C82.4896 12.0067 82.1696 11.6767 81.9363 11.25C81.7029 10.8167 81.5863 10.3167 81.5863 9.75C81.5863 9.18333 81.6996 8.68667 81.9263 8.26C82.1529 7.83333 82.4696 7.50667 82.8763 7.28C83.2896 7.04667 83.7629 6.93 84.2963 6.93C84.8163 6.93 85.2763 7.04333 85.6763 7.27C86.0763 7.49667 86.3829 7.81 86.5963 8.21C86.8163 8.60333 86.9263 9.05 86.9263 9.55ZM85.9863 9.36C85.9863 9.01333 85.9096 8.71667 85.7563 8.47C85.6029 8.21667 85.3929 8.02667 85.1263 7.9C84.8663 7.76667 84.5763 7.7 84.2563 7.7C83.7963 7.7 83.4029 7.84667 83.0763 8.14C82.7563 8.43333 82.5729 8.84 82.5263 9.36H85.9863ZM90.0674 12.59C89.6474 12.59 89.2708 12.52 88.9374 12.38C88.6041 12.2333 88.3408 12.0333 88.1474 11.78C87.9541 11.52 87.8474 11.2233 87.8274 10.89H88.7674C88.7941 11.1633 88.9208 11.3867 89.1474 11.56C89.3808 11.7333 89.6841 11.82 90.0574 11.82C90.4041 11.82 90.6774 11.7433 90.8774 11.59C91.0774 11.4367 91.1774 11.2433 91.1774 11.01C91.1774 10.77 91.0708 10.5933 90.8574 10.48C90.6441 10.36 90.3141 10.2433 89.8674 10.13C89.4608 10.0233 89.1274 9.91667 88.8674 9.81C88.6141 9.69667 88.3941 9.53333 88.2074 9.32C88.0274 9.1 87.9374 8.81333 87.9374 8.46C87.9374 8.18 88.0208 7.92333 88.1874 7.69C88.3541 7.45667 88.5908 7.27333 88.8974 7.14C89.2041 7 89.5541 6.93 89.9474 6.93C90.5541 6.93 91.0441 7.08333 91.4174 7.39C91.7908 7.69667 91.9908 8.11667 92.0174 8.65H91.1074C91.0874 8.36333 90.9708 8.13333 90.7574 7.96C90.5508 7.78667 90.2708 7.7 89.9174 7.7C89.5908 7.7 89.3308 7.77 89.1374 7.91C88.9441 8.05 88.8474 8.23333 88.8474 8.46C88.8474 8.64 88.9041 8.79 89.0174 8.91C89.1374 9.02333 89.2841 9.11667 89.4574 9.19C89.6374 9.25667 89.8841 9.33333 90.1974 9.42C90.5908 9.52667 90.9108 9.63333 91.1574 9.74C91.4041 9.84 91.6141 9.99333 91.7874 10.2C91.9674 10.4067 92.0608 10.6767 92.0674 11.01C92.0674 11.31 91.9841 11.58 91.8174 11.82C91.6508 12.06 91.4141 12.25 91.1074 12.39C90.8074 12.5233 90.4608 12.59 90.0674 12.59ZM97.128 7.77V11C97.128 11.2667 97.1847 11.4567 97.298 11.57C97.4114 11.6767 97.608 11.73 97.888 11.73H98.558V12.5H97.738C97.2314 12.5 96.8514 12.3833 96.598 12.15C96.3447 11.9167 96.218 11.5333 96.218 11V7.77H95.508V7.02H96.218V5.64H97.128V7.02H98.558V7.77H97.128ZM102.051 12.59C101.537 12.59 101.071 12.4733 100.651 12.24C100.237 12.0067 99.9106 11.6767 99.6706 11.25C99.4373 10.8167 99.3206 10.3167 99.3206 9.75C99.3206 9.19 99.4406 8.69667 99.6806 8.27C99.9273 7.83667 100.261 7.50667 100.681 7.28C101.101 7.04667 101.571 6.93 102.091 6.93C102.611 6.93 103.081 7.04667 103.501 7.28C103.921 7.50667 104.251 7.83333 104.491 8.26C104.737 8.68667 104.861 9.18333 104.861 9.75C104.861 10.3167 104.734 10.8167 104.481 11.25C104.234 11.6767 103.897 12.0067 103.471 12.24C103.044 12.4733 102.571 12.59 102.051 12.59ZM102.051 11.79C102.377 11.79 102.684 11.7133 102.971 11.56C103.257 11.4067 103.487 11.1767 103.661 10.87C103.841 10.5633 103.931 10.19 103.931 9.75C103.931 9.31 103.844 8.93667 103.671 8.63C103.497 8.32333 103.271 8.09667 102.991 7.95C102.711 7.79667 102.407 7.72 102.081 7.72C101.747 7.72 101.441 7.79667 101.161 7.95C100.887 8.09667 100.667 8.32333 100.501 8.63C100.334 8.93667 100.251 9.31 100.251 9.75C100.251 10.1967 100.331 10.5733 100.491 10.88C100.657 11.1867 100.877 11.4167 101.151 11.57C101.424 11.7167 101.724 11.79 102.051 11.79ZM107.167 7.77V11C107.167 11.2667 107.224 11.4567 107.337 11.57C107.45 11.6767 107.647 11.73 107.927 11.73H108.597V12.5H107.777C107.27 12.5 106.89 12.3833 106.637 12.15C106.384 11.9167 106.257 11.5333 106.257 11V7.77H105.547V7.02H106.257V5.64H107.167V7.02H108.597V7.77H107.167ZM109.36 9.74C109.36 9.18 109.473 8.69 109.7 8.27C109.926 7.84333 110.236 7.51333 110.63 7.28C111.03 7.04667 111.473 6.93 111.96 6.93C112.44 6.93 112.856 7.03333 113.21 7.24C113.563 7.44667 113.826 7.70667 114 8.02V7.02H114.92V12.5H114V11.48C113.82 11.8 113.55 12.0667 113.19 12.28C112.836 12.4867 112.423 12.59 111.95 12.59C111.463 12.59 111.023 12.47 110.63 12.23C110.236 11.99 109.926 11.6533 109.7 11.22C109.473 10.7867 109.36 10.2933 109.36 9.74ZM114 9.75C114 9.33667 113.916 8.97667 113.75 8.67C113.583 8.36333 113.356 8.13 113.07 7.97C112.79 7.80333 112.48 7.72 112.14 7.72C111.8 7.72 111.49 7.8 111.21 7.96C110.93 8.12 110.706 8.35333 110.54 8.66C110.373 8.96667 110.29 9.32667 110.29 9.74C110.29 10.16 110.373 10.5267 110.54 10.84C110.706 11.1467 110.93 11.3833 111.21 11.55C111.49 11.71 111.8 11.79 112.14 11.79C112.48 11.79 112.79 11.71 113.07 11.55C113.356 11.3833 113.583 11.1467 113.75 10.84C113.916 10.5267 114 10.1633 114 9.75ZM117.368 5.1V12.5H116.458V5.1H117.368ZM123.918 9.55C123.918 9.72333 123.908 9.90667 123.888 10.1H119.508C119.542 10.64 119.725 11.0633 120.058 11.37C120.398 11.67 120.808 11.82 121.288 11.82C121.682 11.82 122.008 11.73 122.268 11.55C122.535 11.3633 122.722 11.1167 122.828 10.81H123.808C123.662 11.3367 123.368 11.7667 122.928 12.1C122.488 12.4267 121.942 12.59 121.288 12.59C120.768 12.59 120.302 12.4733 119.888 12.24C119.482 12.0067 119.162 11.6767 118.928 11.25C118.695 10.8167 118.578 10.3167 118.578 9.75C118.578 9.18333 118.692 8.68667 118.918 8.26C119.145 7.83333 119.462 7.50667 119.868 7.28C120.282 7.04667 120.755 6.93 121.288 6.93C121.808 6.93 122.268 7.04333 122.668 7.27C123.068 7.49667 123.375 7.81 123.588 8.21C123.808 8.60333 123.918 9.05 123.918 9.55ZM122.978 9.36C122.978 9.01333 122.902 8.71667 122.748 8.47C122.595 8.21667 122.385 8.02667 122.118 7.9C121.858 7.76667 121.568 7.7 121.248 7.7C120.788 7.7 120.395 7.84667 120.068 8.14C119.748 8.43333 119.565 8.84 119.518 9.36H122.978ZM127.06 12.59C126.64 12.59 126.263 12.52 125.93 12.38C125.596 12.2333 125.333 12.0333 125.14 11.78C124.946 11.52 124.84 11.2233 124.82 10.89H125.76C125.786 11.1633 125.913 11.3867 126.14 11.56C126.373 11.7333 126.676 11.82 127.05 11.82C127.396 11.82 127.67 11.7433 127.87 11.59C128.07 11.4367 128.17 11.2433 128.17 11.01C128.17 10.77 128.063 10.5933 127.85 10.48C127.636 10.36 127.306 10.2433 126.86 10.13C126.453 10.0233 126.12 9.91667 125.86 9.81C125.606 9.69667 125.386 9.53333 125.2 9.32C125.02 9.1 124.93 8.81333 124.93 8.46C124.93 8.18 125.013 7.92333 125.18 7.69C125.346 7.45667 125.583 7.27333 125.89 7.14C126.196 7 126.546 6.93 126.94 6.93C127.546 6.93 128.036 7.08333 128.41 7.39C128.783 7.69667 128.983 8.11667 129.01 8.65H128.1C128.08 8.36333 127.963 8.13333 127.75 7.96C127.543 7.78667 127.263 7.7 126.91 7.7C126.583 7.7 126.323 7.77 126.13 7.91C125.936 8.05 125.84 8.23333 125.84 8.46C125.84 8.64 125.896 8.79 126.01 8.91C126.13 9.02333 126.276 9.11667 126.45 9.19C126.63 9.25667 126.876 9.33333 127.19 9.42C127.583 9.52667 127.903 9.63333 128.15 9.74C128.396 9.84 128.606 9.99333 128.78 10.2C128.96 10.4067 129.053 10.6767 129.06 11.01C129.06 11.31 128.976 11.58 128.81 11.82C128.643 12.06 128.406 12.25 128.1 12.39C127.8 12.5233 127.453 12.59 127.06 12.59Z" fill="#4E4E4E"/>
              <circle cx="148" cy="9" r="4" fill="#03A9F4"/>
              <path d="M158.94 5.53C159.7 5.53 160.357 5.67333 160.91 5.96C161.47 6.24 161.897 6.64333 162.19 7.17C162.49 7.69667 162.64 8.31667 162.64 9.03C162.64 9.74333 162.49 10.3633 162.19 10.89C161.897 11.41 161.47 11.81 160.91 12.09C160.357 12.3633 159.7 12.5 158.94 12.5H156.77V5.53H158.94ZM158.94 11.75C159.84 11.75 160.527 11.5133 161 11.04C161.473 10.56 161.71 9.89 161.71 9.03C161.71 8.16333 161.47 7.48667 160.99 7C160.517 6.51333 159.833 6.27 158.94 6.27H157.68V11.75H158.94ZM168.84 9.55C168.84 9.72333 168.83 9.90667 168.81 10.1H164.43C164.464 10.64 164.647 11.0633 164.98 11.37C165.32 11.67 165.73 11.82 166.21 11.82C166.604 11.82 166.93 11.73 167.19 11.55C167.457 11.3633 167.644 11.1167 167.75 10.81H168.73C168.584 11.3367 168.29 11.7667 167.85 12.1C167.41 12.4267 166.864 12.59 166.21 12.59C165.69 12.59 165.224 12.4733 164.81 12.24C164.404 12.0067 164.084 11.6767 163.85 11.25C163.617 10.8167 163.5 10.3167 163.5 9.75C163.5 9.18333 163.614 8.68667 163.84 8.26C164.067 7.83333 164.384 7.50667 164.79 7.28C165.204 7.04667 165.677 6.93 166.21 6.93C166.73 6.93 167.19 7.04333 167.59 7.27C167.99 7.49667 168.297 7.81 168.51 8.21C168.73 8.60333 168.84 9.05 168.84 9.55ZM167.9 9.36C167.9 9.01333 167.824 8.71667 167.67 8.47C167.517 8.21667 167.307 8.02667 167.04 7.9C166.78 7.76667 166.49 7.7 166.17 7.7C165.71 7.7 165.317 7.84667 164.99 8.14C164.67 8.43333 164.487 8.84 164.44 9.36H167.9ZM171.981 12.59C171.561 12.59 171.185 12.52 170.851 12.38C170.518 12.2333 170.255 12.0333 170.061 11.78C169.868 11.52 169.761 11.2233 169.741 10.89H170.681C170.708 11.1633 170.835 11.3867 171.061 11.56C171.295 11.7333 171.598 11.82 171.971 11.82C172.318 11.82 172.591 11.7433 172.791 11.59C172.991 11.4367 173.091 11.2433 173.091 11.01C173.091 10.77 172.985 10.5933 172.771 10.48C172.558 10.36 172.228 10.2433 171.781 10.13C171.375 10.0233 171.041 9.91667 170.781 9.81C170.528 9.69667 170.308 9.53333 170.121 9.32C169.941 9.1 169.851 8.81333 169.851 8.46C169.851 8.18 169.935 7.92333 170.101 7.69C170.268 7.45667 170.505 7.27333 170.811 7.14C171.118 7 171.468 6.93 171.861 6.93C172.468 6.93 172.958 7.08333 173.331 7.39C173.705 7.69667 173.905 8.11667 173.931 8.65H173.021C173.001 8.36333 172.885 8.13333 172.671 7.96C172.465 7.78667 172.185 7.7 171.831 7.7C171.505 7.7 171.245 7.77 171.051 7.91C170.858 8.05 170.761 8.23333 170.761 8.46C170.761 8.64 170.818 8.79 170.931 8.91C171.051 9.02333 171.198 9.11667 171.371 9.19C171.551 9.25667 171.798 9.33333 172.111 9.42C172.505 9.52667 172.825 9.63333 173.071 9.74C173.318 9.84 173.528 9.99333 173.701 10.2C173.881 10.4067 173.975 10.6767 173.981 11.01C173.981 11.31 173.898 11.58 173.731 11.82C173.565 12.06 173.328 12.25 173.021 12.39C172.721 12.5233 172.375 12.59 171.981 12.59ZM174.926 9.75C174.926 9.18333 175.039 8.69 175.266 8.27C175.493 7.84333 175.806 7.51333 176.206 7.28C176.613 7.04667 177.076 6.93 177.596 6.93C178.269 6.93 178.823 7.09333 179.256 7.42C179.696 7.74667 179.986 8.2 180.126 8.78H179.146C179.053 8.44667 178.869 8.18333 178.596 7.99C178.329 7.79667 177.996 7.7 177.596 7.7C177.076 7.7 176.656 7.88 176.336 8.24C176.016 8.59333 175.856 9.09667 175.856 9.75C175.856 10.41 176.016 10.92 176.336 11.28C176.656 11.64 177.076 11.82 177.596 11.82C177.996 11.82 178.329 11.7267 178.596 11.54C178.863 11.3533 179.046 11.0867 179.146 10.74H180.126C179.979 11.3 179.686 11.75 179.246 12.09C178.806 12.4233 178.256 12.59 177.596 12.59C177.076 12.59 176.613 12.4733 176.206 12.24C175.806 12.0067 175.493 11.6767 175.266 11.25C175.039 10.8233 174.926 10.3233 174.926 9.75ZM181 9.74C181 9.18 181.114 8.69 181.34 8.27C181.567 7.84333 181.877 7.51333 182.27 7.28C182.67 7.04667 183.114 6.93 183.6 6.93C184.08 6.93 184.497 7.03333 184.85 7.24C185.204 7.44667 185.467 7.70667 185.64 8.02V7.02H186.56V12.5H185.64V11.48C185.46 11.8 185.19 12.0667 184.83 12.28C184.477 12.4867 184.064 12.59 183.59 12.59C183.104 12.59 182.664 12.47 182.27 12.23C181.877 11.99 181.567 11.6533 181.34 11.22C181.114 10.7867 181 10.2933 181 9.74ZM185.64 9.75C185.64 9.33667 185.557 8.97667 185.39 8.67C185.224 8.36333 184.997 8.13 184.71 7.97C184.43 7.80333 184.12 7.72 183.78 7.72C183.44 7.72 183.13 7.8 182.85 7.96C182.57 8.12 182.347 8.35333 182.18 8.66C182.014 8.96667 181.93 9.32667 181.93 9.74C181.93 10.16 182.014 10.5267 182.18 10.84C182.347 11.1467 182.57 11.3833 182.85 11.55C183.13 11.71 183.44 11.79 183.78 11.79C184.12 11.79 184.43 11.71 184.71 11.55C184.997 11.3833 185.224 11.1467 185.39 10.84C185.557 10.5267 185.64 10.1633 185.64 9.75ZM189.008 7.91C189.168 7.59667 189.395 7.35333 189.688 7.18C189.988 7.00667 190.351 6.92 190.778 6.92V7.86H190.538C189.518 7.86 189.008 8.41333 189.008 9.52V12.5H188.098V7.02H189.008V7.91ZM194.089 6.93C194.562 6.93 194.975 7.03333 195.329 7.24C195.689 7.44667 195.955 7.70667 196.129 8.02V7.02H197.049V12.62C197.049 13.12 196.942 13.5633 196.729 13.95C196.515 14.3433 196.209 14.65 195.809 14.87C195.415 15.09 194.955 15.2 194.429 15.2C193.709 15.2 193.109 15.03 192.629 14.69C192.149 14.35 191.865 13.8867 191.779 13.3H192.679C192.779 13.6333 192.985 13.9 193.299 14.1C193.612 14.3067 193.989 14.41 194.429 14.41C194.929 14.41 195.335 14.2533 195.649 13.94C195.969 13.6267 196.129 13.1867 196.129 12.62V11.47C195.949 11.79 195.682 12.0567 195.329 12.27C194.975 12.4833 194.562 12.59 194.089 12.59C193.602 12.59 193.159 12.47 192.759 12.23C192.365 11.99 192.055 11.6533 191.829 11.22C191.602 10.7867 191.489 10.2933 191.489 9.74C191.489 9.18 191.602 8.69 191.829 8.27C192.055 7.84333 192.365 7.51333 192.759 7.28C193.159 7.04667 193.602 6.93 194.089 6.93ZM196.129 9.75C196.129 9.33667 196.045 8.97667 195.879 8.67C195.712 8.36333 195.485 8.13 195.199 7.97C194.919 7.80333 194.609 7.72 194.269 7.72C193.929 7.72 193.619 7.8 193.339 7.96C193.059 8.12 192.835 8.35333 192.669 8.66C192.502 8.96667 192.419 9.32667 192.419 9.74C192.419 10.16 192.502 10.5267 192.669 10.84C192.835 11.1467 193.059 11.3833 193.339 11.55C193.619 11.71 193.929 11.79 194.269 11.79C194.609 11.79 194.919 11.71 195.199 11.55C195.485 11.3833 195.712 11.1467 195.879 10.84C196.045 10.5267 196.129 10.1633 196.129 9.75ZM198.246 9.74C198.246 9.18 198.36 8.69 198.586 8.27C198.813 7.84333 199.123 7.51333 199.516 7.28C199.916 7.04667 200.36 6.93 200.846 6.93C201.326 6.93 201.743 7.03333 202.096 7.24C202.45 7.44667 202.713 7.70667 202.886 8.02V7.02H203.806V12.5H202.886V11.48C202.706 11.8 202.436 12.0667 202.076 12.28C201.723 12.4867 201.31 12.59 200.836 12.59C200.35 12.59 199.91 12.47 199.516 12.23C199.123 11.99 198.813 11.6533 198.586 11.22C198.36 10.7867 198.246 10.2933 198.246 9.74ZM202.886 9.75C202.886 9.33667 202.803 8.97667 202.636 8.67C202.47 8.36333 202.243 8.13 201.956 7.97C201.676 7.80333 201.366 7.72 201.026 7.72C200.686 7.72 200.376 7.8 200.096 7.96C199.816 8.12 199.593 8.35333 199.426 8.66C199.26 8.96667 199.176 9.32667 199.176 9.74C199.176 10.16 199.26 10.5267 199.426 10.84C199.593 11.1467 199.816 11.3833 200.096 11.55C200.376 11.71 200.686 11.79 201.026 11.79C201.366 11.79 201.676 11.71 201.956 11.55C202.243 11.3833 202.47 11.1467 202.636 10.84C202.803 10.5267 202.886 10.1633 202.886 9.75ZM207.284 12.59C206.864 12.59 206.488 12.52 206.154 12.38C205.821 12.2333 205.558 12.0333 205.364 11.78C205.171 11.52 205.064 11.2233 205.044 10.89H205.984C206.011 11.1633 206.138 11.3867 206.364 11.56C206.598 11.7333 206.901 11.82 207.274 11.82C207.621 11.82 207.894 11.7433 208.094 11.59C208.294 11.4367 208.394 11.2433 208.394 11.01C208.394 10.77 208.288 10.5933 208.074 10.48C207.861 10.36 207.531 10.2433 207.084 10.13C206.678 10.0233 206.344 9.91667 206.084 9.81C205.831 9.69667 205.611 9.53333 205.424 9.32C205.244 9.1 205.154 8.81333 205.154 8.46C205.154 8.18 205.238 7.92333 205.404 7.69C205.571 7.45667 205.808 7.27333 206.114 7.14C206.421 7 206.771 6.93 207.164 6.93C207.771 6.93 208.261 7.08333 208.634 7.39C209.008 7.69667 209.208 8.11667 209.234 8.65H208.324C208.304 8.36333 208.188 8.13333 207.974 7.96C207.768 7.78667 207.488 7.7 207.134 7.7C206.808 7.7 206.548 7.77 206.354 7.91C206.161 8.05 206.064 8.23333 206.064 8.46C206.064 8.64 206.121 8.79 206.234 8.91C206.354 9.02333 206.501 9.11667 206.674 9.19C206.854 9.25667 207.101 9.33333 207.414 9.42C207.808 9.52667 208.128 9.63333 208.374 9.74C208.621 9.84 208.831 9.99333 209.004 10.2C209.184 10.4067 209.278 10.6767 209.284 11.01C209.284 11.31 209.201 11.58 209.034 11.82C208.868 12.06 208.631 12.25 208.324 12.39C208.024 12.5233 207.678 12.59 207.284 12.59ZM214.345 7.77V11C214.345 11.2667 214.402 11.4567 214.515 11.57C214.628 11.6767 214.825 11.73 215.105 11.73H215.775V12.5H214.955C214.448 12.5 214.068 12.3833 213.815 12.15C213.562 11.9167 213.435 11.5333 213.435 11V7.77H212.725V7.02H213.435V5.64H214.345V7.02H215.775V7.77H214.345ZM219.267 12.59C218.754 12.59 218.287 12.4733 217.867 12.24C217.454 12.0067 217.127 11.6767 216.887 11.25C216.654 10.8167 216.537 10.3167 216.537 9.75C216.537 9.19 216.657 8.69667 216.897 8.27C217.144 7.83667 217.477 7.50667 217.897 7.28C218.317 7.04667 218.787 6.93 219.307 6.93C219.827 6.93 220.297 7.04667 220.717 7.28C221.137 7.50667 221.467 7.83333 221.707 8.26C221.954 8.68667 222.077 9.18333 222.077 9.75C222.077 10.3167 221.951 10.8167 221.697 11.25C221.451 11.6767 221.114 12.0067 220.687 12.24C220.261 12.4733 219.787 12.59 219.267 12.59ZM219.267 11.79C219.594 11.79 219.901 11.7133 220.187 11.56C220.474 11.4067 220.704 11.1767 220.877 10.87C221.057 10.5633 221.147 10.19 221.147 9.75C221.147 9.31 221.061 8.93667 220.887 8.63C220.714 8.32333 220.487 8.09667 220.207 7.95C219.927 7.79667 219.624 7.72 219.297 7.72C218.964 7.72 218.657 7.79667 218.377 7.95C218.104 8.09667 217.884 8.32333 217.717 8.63C217.551 8.93667 217.467 9.31 217.467 9.75C217.467 10.1967 217.547 10.5733 217.707 10.88C217.874 11.1867 218.094 11.4167 218.367 11.57C218.641 11.7167 218.941 11.79 219.267 11.79ZM224.384 7.77V11C224.384 11.2667 224.441 11.4567 224.554 11.57C224.667 11.6767 224.864 11.73 225.144 11.73H225.814V12.5H224.994C224.487 12.5 224.107 12.3833 223.854 12.15C223.601 11.9167 223.474 11.5333 223.474 11V7.77H222.764V7.02H223.474V5.64H224.384V7.02H225.814V7.77H224.384ZM226.576 9.74C226.576 9.18 226.69 8.69 226.916 8.27C227.143 7.84333 227.453 7.51333 227.846 7.28C228.246 7.04667 228.69 6.93 229.176 6.93C229.656 6.93 230.073 7.03333 230.426 7.24C230.78 7.44667 231.043 7.70667 231.216 8.02V7.02H232.136V12.5H231.216V11.48C231.036 11.8 230.766 12.0667 230.406 12.28C230.053 12.4867 229.64 12.59 229.166 12.59C228.68 12.59 228.24 12.47 227.846 12.23C227.453 11.99 227.143 11.6533 226.916 11.22C226.69 10.7867 226.576 10.2933 226.576 9.74ZM231.216 9.75C231.216 9.33667 231.133 8.97667 230.966 8.67C230.8 8.36333 230.573 8.13 230.286 7.97C230.006 7.80333 229.696 7.72 229.356 7.72C229.016 7.72 228.706 7.8 228.426 7.96C228.146 8.12 227.923 8.35333 227.756 8.66C227.59 8.96667 227.506 9.32667 227.506 9.74C227.506 10.16 227.59 10.5267 227.756 10.84C227.923 11.1467 228.146 11.3833 228.426 11.55C228.706 11.71 229.016 11.79 229.356 11.79C229.696 11.79 230.006 11.71 230.286 11.55C230.573 11.3833 230.8 11.1467 230.966 10.84C231.133 10.5267 231.216 10.1633 231.216 9.75ZM234.584 5.1V12.5H233.674V5.1H234.584ZM241.135 9.55C241.135 9.72333 241.125 9.90667 241.105 10.1H236.725C236.759 10.64 236.942 11.0633 237.275 11.37C237.615 11.67 238.025 11.82 238.505 11.82C238.899 11.82 239.225 11.73 239.485 11.55C239.752 11.3633 239.939 11.1167 240.045 10.81H241.025C240.879 11.3367 240.585 11.7667 240.145 12.1C239.705 12.4267 239.159 12.59 238.505 12.59C237.985 12.59 237.519 12.4733 237.105 12.24C236.699 12.0067 236.379 11.6767 236.145 11.25C235.912 10.8167 235.795 10.3167 235.795 9.75C235.795 9.18333 235.909 8.68667 236.135 8.26C236.362 7.83333 236.679 7.50667 237.085 7.28C237.499 7.04667 237.972 6.93 238.505 6.93C239.025 6.93 239.485 7.04333 239.885 7.27C240.285 7.49667 240.592 7.81 240.805 8.21C241.025 8.60333 241.135 9.05 241.135 9.55ZM240.195 9.36C240.195 9.01333 240.119 8.71667 239.965 8.47C239.812 8.21667 239.602 8.02667 239.335 7.9C239.075 7.76667 238.785 7.7 238.465 7.7C238.005 7.7 237.612 7.84667 237.285 8.14C236.965 8.43333 236.782 8.84 236.735 9.36H240.195ZM244.276 12.59C243.856 12.59 243.48 12.52 243.146 12.38C242.813 12.2333 242.55 12.0333 242.356 11.78C242.163 11.52 242.056 11.2233 242.036 10.89H242.976C243.003 11.1633 243.13 11.3867 243.356 11.56C243.59 11.7333 243.893 11.82 244.266 11.82C244.613 11.82 244.886 11.7433 245.086 11.59C245.286 11.4367 245.386 11.2433 245.386 11.01C245.386 10.77 245.28 10.5933 245.066 10.48C244.853 10.36 244.523 10.2433 244.076 10.13C243.67 10.0233 243.336 9.91667 243.076 9.81C242.823 9.69667 242.603 9.53333 242.416 9.32C242.236 9.1 242.146 8.81333 242.146 8.46C242.146 8.18 242.23 7.92333 242.396 7.69C242.563 7.45667 242.8 7.27333 243.106 7.14C243.413 7 243.763 6.93 244.156 6.93C244.763 6.93 245.253 7.08333 245.626 7.39C246 7.69667 246.2 8.11667 246.226 8.65H245.316C245.296 8.36333 245.18 8.13333 244.966 7.96C244.76 7.78667 244.48 7.7 244.126 7.7C243.8 7.7 243.54 7.77 243.346 7.91C243.153 8.05 243.056 8.23333 243.056 8.46C243.056 8.64 243.113 8.79 243.226 8.91C243.346 9.02333 243.493 9.11667 243.666 9.19C243.846 9.25667 244.093 9.33333 244.406 9.42C244.8 9.52667 245.12 9.63333 245.366 9.74C245.613 9.84 245.823 9.99333 245.996 10.2C246.176 10.4067 246.27 10.6767 246.276 11.01C246.276 11.31 246.193 11.58 246.026 11.82C245.86 12.06 245.623 12.25 245.316 12.39C245.016 12.5233 244.67 12.59 244.276 12.59Z" fill="#4E4E4E"/>
              </svg>