<svg width="169" height="51" viewBox="0 0 169 51" fill="none" xmlns="http://www.w3.org/2000/svg">
<g clip-path="url(#clip0_4014_381)">
<path d="M66.8516 22.0698C66.8516 19.9844 65.4453 18.4812 63.5028 18.4812C61.5602 18.4812 60.1285 19.9996 60.1285 22.0698C60.1285 24.14 61.5551 25.6585 63.5028 25.6585C65.4504 25.6585 66.8516 24.14 66.8516 22.0698ZM56.4609 22.0698C56.4609 17.9901 59.3951 15.0596 63.5028 15.0596C67.6104 15.0596 70.5191 17.98 70.5191 22.0698C70.5191 26.1595 67.6003 29.0801 63.5028 29.0801C59.4052 29.0801 56.4609 26.1494 56.4609 22.0698Z" fill="white"/>
<path d="M76.0625 29.0801C73.2347 29.0801 71.5097 27.5617 71.4844 25.3396H74.9193C74.9128 25.4958 74.9406 25.6513 75.0005 25.7956C75.0605 25.9399 75.1512 26.0694 75.2663 26.175C75.3815 26.2806 75.5183 26.3597 75.6672 26.4068C75.8161 26.454 75.9735 26.4681 76.1284 26.4481C76.6342 26.4481 77.1401 26.1798 77.1401 25.6433C77.1401 25.1067 76.356 24.874 75.3594 24.707C73.7508 24.4488 71.6159 23.9628 71.6159 21.4421C71.6159 19.3618 73.3915 18.0205 76.0473 18.0205C78.7032 18.0205 80.403 19.4277 80.4435 21.5283H77.0945C77.0945 20.8652 76.6494 20.5564 76.0019 20.5564C75.4303 20.5564 75.0457 20.8449 75.0457 21.3257C75.0457 21.9129 75.84 22.0496 76.8264 22.2267C78.4604 22.5203 80.6407 22.8594 80.6407 25.4914C80.6407 27.6628 78.8145 29.0801 76.0575 29.0801H76.0625Z" fill="white"/>
<path d="M85.9984 19.2959H82.4219V29.085H85.9984V19.2959Z" fill="white"/>
<path d="M85.9779 15.0137H82.457V17.8735H85.9779V15.0137Z" fill="white"/>
<path d="M98.5029 22.7479V29.0748H94.9364V23.254C94.9364 22.0494 94.4812 21.447 93.5807 21.447C92.4678 21.447 91.8254 22.2266 91.8254 23.5476V29.1154H88.2539V18.6986H90.7833L91.2891 19.7717C91.7043 19.3239 92.21 18.9695 92.7725 18.7321C93.3351 18.4947 93.9416 18.3797 94.552 18.3949C96.9599 18.3949 98.5433 20.1057 98.5433 22.7529" fill="white"/>
<path d="M103.623 22.4187H107.817C107.705 21.944 107.43 21.5237 107.039 21.2313C106.649 20.939 106.169 20.7931 105.682 20.8192C105.205 20.8003 104.737 20.9504 104.361 21.2431C103.984 21.5357 103.723 21.9521 103.623 22.4187ZM111.338 23.4311C111.336 23.7478 111.313 24.0641 111.267 24.3775H103.562C103.617 24.8929 103.868 25.3676 104.262 25.7038C104.656 26.04 105.165 26.2121 105.682 26.1845C106.052 26.2037 106.421 26.1238 106.75 25.9529C107.079 25.7821 107.356 25.5266 107.554 25.2127H111.095C110.74 26.3628 110.016 27.3632 109.034 28.0589C108.052 28.7545 106.869 29.1063 105.667 29.0595C104.928 29.0871 104.191 28.9636 103.501 28.6965C102.811 28.4294 102.183 28.0243 101.655 27.506C101.127 26.9877 100.71 26.3671 100.43 25.6821C100.15 24.9971 100.013 24.2621 100.026 23.5221C100.026 20.3384 102.409 18 105.667 18C109.011 18 111.322 20.384 111.322 23.4311H111.338Z" fill="white"/>
<path d="M119.723 18.653V21.9229H118.332C117.068 21.9229 116.536 22.4796 116.536 23.8007V29.0799H112.965V18.6986H115.358L115.914 19.8527C116.265 19.4447 116.706 19.124 117.202 18.9158C117.698 18.7077 118.236 18.6176 118.772 18.653H119.723Z" fill="white"/>
<path d="M128.657 23.8414C128.671 23.5449 128.624 23.2487 128.519 22.9712C128.413 22.6937 128.252 22.4409 128.044 22.2286C127.837 22.0164 127.588 21.8491 127.313 21.7373C127.038 21.6255 126.743 21.5716 126.447 21.5789C126.15 21.5724 125.855 21.6269 125.58 21.7389C125.306 21.8509 125.057 22.0181 124.849 22.2301C124.641 22.4422 124.479 22.6945 124.373 22.9717C124.267 23.2488 124.218 23.5448 124.231 23.8414C124.215 24.1394 124.262 24.4375 124.367 24.7168C124.472 24.9961 124.634 25.2506 124.842 25.4644C125.05 25.6783 125.3 25.8469 125.576 25.9596C125.852 26.0722 126.148 26.1265 126.447 26.1191C126.744 26.1258 127.04 26.0709 127.316 25.958C127.591 25.845 127.841 25.6763 128.048 25.4626C128.256 25.2488 128.417 24.9945 128.522 24.7156C128.627 24.4366 128.673 24.139 128.657 23.8414ZM131.996 18.957V28.1843C131.996 31.4439 129.861 33.4635 126.431 33.4635C123.487 33.4635 121.423 31.9804 120.948 29.5205H124.398C124.646 30.2139 125.531 30.5885 126.396 30.5885C126.67 30.6071 126.946 30.5695 127.205 30.478C127.465 30.3866 127.703 30.2432 127.905 30.0565C128.107 29.8699 128.269 29.6439 128.381 29.3924C128.493 29.141 128.553 28.8695 128.556 28.5943V28.2804C127.747 28.7937 126.808 29.0642 125.85 29.0599C125.161 29.0775 124.477 28.9543 123.838 28.6978C123.199 28.4414 122.619 28.0572 122.133 27.5686C121.648 27.0801 121.267 26.4975 121.015 25.8566C120.762 25.2158 120.643 24.53 120.665 23.8414C120.647 23.154 120.77 22.4703 121.024 21.8314C121.278 21.1924 121.659 20.6116 122.143 20.1239C122.628 19.6363 123.206 19.2518 123.843 18.9939C124.48 18.7359 125.163 18.6098 125.85 18.623C127.05 18.6188 128.211 19.0463 129.123 19.8276L129.578 18.952L131.996 18.957Z" fill="white"/>
<path d="M150.274 22.5708V29.08H146.697V23.0061C146.697 21.9229 146.303 21.4016 145.544 21.4016C144.557 21.4016 144.057 22.0748 144.057 23.3857V29.0749H140.576V23.001C140.576 21.9482 140.182 21.3966 139.433 21.3966C138.462 21.3966 137.915 22.09 137.915 23.3807V29.0699H134.344V18.6987H136.873L137.379 19.8173C137.752 19.3742 138.216 19.0176 138.74 18.772C139.264 18.5264 139.835 18.3977 140.414 18.395C140.998 18.3784 141.577 18.5088 142.098 18.7741C142.618 19.0394 143.064 19.4311 143.394 19.9134C143.776 19.4359 144.261 19.0513 144.813 18.7883C145.365 18.5253 145.97 18.3908 146.581 18.395C148.802 18.395 150.279 20.126 150.279 22.5708" fill="white"/>
<path d="M155.98 19.2959H152.408V29.085H155.98V19.2959Z" fill="white"/>
<path d="M155.964 15.0137H152.443V17.8735H155.964V15.0137Z" fill="white"/>
<path d="M168.906 22.7479V29.0749H165.329V23.2541C165.329 22.0494 164.874 21.447 163.978 21.447C162.86 21.447 162.223 22.2266 162.223 23.5477V29.1154H158.646V18.6986H161.176L161.682 19.7717C162.098 19.3238 162.604 18.9693 163.168 18.732C163.731 18.4947 164.339 18.3797 164.95 18.3949C167.358 18.3949 168.941 20.1058 168.941 22.753" fill="white"/>
<path d="M28.1606 7.19874C28.9923 7.16047 29.8257 7.18071 30.6545 7.25942L27.8015 12.8271C36.8566 13.5611 44.1006 22.0291 43.099 31.3526L37.5091 28.4979C36.7756 37.5632 28.3174 44.8012 18.9992 43.8041L21.8524 38.2363C12.7922 37.4974 5.54817 29.0344 6.5498 19.7109L12.1144 22.5656C12.4994 18.5063 14.3297 14.7207 17.2715 11.899C20.2133 9.07723 24.0707 7.40729 28.1404 7.19367M8.31528 13.6066L2.7507 10.757C-3.24894 21.7508 1.90589 36.8647 12.8681 42.0376L10.0251 47.6053C21.0126 53.6033 36.1129 48.4506 41.2829 37.4822L46.8475 40.3318C52.8471 29.338 47.6973 14.2242 36.73 9.05123L39.5782 3.4835C28.5856 -2.51953 13.4853 2.63316 8.31022 13.6066" fill="white"/>
</g>
<defs>
<clipPath id="clip0_4014_381">
<rect width="168.668" height="49.2188" fill="white" transform="translate(0.232422 0.9375)"/>
</clipPath>
</defs>
</svg>
