<svg width="166" height="48" viewBox="0 0 166 48" fill="none" xmlns="http://www.w3.org/2000/svg">
<g clip-path="url(#clip0_4159_1322)">
<path d="M65.3822 20.6118C65.3822 18.5778 63.9969 17.1116 62.0902 17.1116C60.1836 17.1116 58.7784 18.5926 58.7784 20.6118C58.7784 22.6309 60.1836 24.1119 62.0902 24.1119C63.9969 24.1119 65.3822 22.6309 65.3822 20.6118ZM55.1836 20.6118C55.1836 16.6377 58.0585 13.7793 62.0902 13.7793C66.122 13.7793 68.982 16.6229 68.982 20.6118C68.982 24.6006 66.1171 27.4491 62.0952 27.4491C58.0734 27.4491 55.1886 24.5908 55.1886 20.6118" fill="#0036AE"/>
<path d="M74.4433 27.4489C71.6678 27.4489 69.9746 25.9926 69.9746 23.8006H73.351C73.3439 23.9527 73.3704 24.1044 73.4287 24.2452C73.4869 24.3859 73.5755 24.5123 73.6881 24.6154C73.8008 24.7184 73.9348 24.7957 74.0807 24.8417C74.2266 24.8877 74.3809 24.9014 74.5327 24.8818C75.0292 24.8818 75.5257 24.6201 75.5257 24.0968C75.5257 23.5736 74.7561 23.3465 73.778 23.1835C72.199 22.9318 70.1037 22.4578 70.1037 19.9993C70.1037 17.9703 71.8465 16.6621 74.4533 16.6621C77.06 16.6621 78.7283 18.0345 78.7681 20.0833H75.4364C75.4364 19.4366 74.9994 19.1354 74.3639 19.1354C73.8028 19.1354 73.4254 19.4168 73.4254 19.8858C73.4254 20.4585 74.205 20.5918 75.1732 20.7645C76.782 21.0509 78.917 21.3816 78.917 23.9487C78.917 26.0666 77.1246 27.4489 74.4185 27.4489H74.4433Z" fill="#0036AE"/>
<path d="M84.1764 17.9062H80.666V27.4539H84.1764V17.9062Z" fill="#0036AE"/>
<path d="M84.1511 13.7285H80.6953V16.5178H84.1511V13.7285Z" fill="#0036AE"/>
<path d="M96.4457 21.2771V27.4481H92.9403V21.756C92.9403 20.581 92.4934 19.9936 91.6096 19.9936C90.5172 19.9936 89.8867 20.7538 89.8867 22.0423V27.4481H86.3613V17.3228H88.8439L89.3405 18.3694C89.7493 17.9329 90.2466 17.5876 90.7995 17.3562C91.3524 17.1247 91.9483 17.0124 92.548 17.0266C94.9115 17.0266 96.4656 18.6952 96.4656 21.2771" fill="#0036AE"/>
<path d="M101.47 20.952H105.586C105.474 20.4891 105.203 20.0797 104.819 19.7947C104.436 19.5098 103.964 19.3673 103.486 19.392C103.019 19.3748 102.561 19.5217 102.192 19.807C101.823 20.0924 101.568 20.4978 101.47 20.952ZM109.042 21.9394C109.039 22.2485 109.014 22.557 108.967 22.8626H101.405C101.459 23.3653 101.705 23.8283 102.092 24.1562C102.479 24.4841 102.978 24.6518 103.486 24.625C103.847 24.6477 104.208 24.5746 104.531 24.4133C104.855 24.252 105.13 24.0082 105.328 23.7067H108.803C108.377 24.9355 107.531 25.9766 106.412 26.6488C105.293 27.321 103.972 27.5817 102.68 27.3856C101.388 27.1894 100.206 26.5489 99.3393 25.5753C98.4731 24.6018 97.9777 23.3571 97.9395 22.0579C97.9395 18.9527 100.273 16.6719 103.471 16.6719C106.753 16.6719 109.027 19.002 109.027 21.969L109.042 21.9394Z" fill="#0036AE"/>
<path d="M117.274 17.289V20.4781H115.909C114.667 20.4781 114.151 21.0212 114.151 22.3097V27.4587H110.641V17.3235H112.994L113.54 18.4491C113.884 18.0507 114.317 17.7374 114.804 17.5343C115.291 17.3312 115.819 17.2438 116.346 17.2791L117.274 17.289Z" fill="#0036AE"/>
<path d="M126.038 22.3387C126.025 21.915 125.887 21.5044 125.641 21.1582C125.395 20.8119 125.052 20.5454 124.655 20.3919C124.257 20.2384 123.823 20.2048 123.407 20.2951C122.99 20.3855 122.61 20.5958 122.313 20.9C122.016 21.2041 121.815 21.5884 121.737 22.0051C121.658 22.4217 121.705 22.8522 121.871 23.2426C122.036 23.6331 122.314 23.9663 122.67 24.2007C123.025 24.435 123.442 24.5601 123.868 24.5603C124.161 24.5675 124.451 24.5145 124.722 24.4046C124.993 24.2946 125.238 24.1302 125.442 23.9215C125.646 23.7129 125.804 23.4645 125.907 23.1921C126.009 22.9197 126.054 22.6292 126.038 22.3387ZM129.315 17.5748V26.5745C129.315 29.7537 127.22 31.7235 123.853 31.7235C120.964 31.7235 118.938 30.277 118.471 27.8778H121.857C122.101 28.5541 122.97 28.9194 123.819 28.9194C124.088 28.9376 124.359 28.9008 124.614 28.8113C124.869 28.7217 125.103 28.5814 125.301 28.3988C125.5 28.2163 125.659 27.9953 125.768 27.7495C125.878 27.5037 125.936 27.2383 125.939 26.9694V26.6683C125.168 27.1449 124.282 27.4069 123.374 27.4268C122.466 27.4467 121.57 27.2238 120.778 26.7813C119.986 26.3389 119.329 25.6931 118.874 24.9116C118.419 24.1301 118.184 23.2416 118.193 22.3387C118.176 21.6683 118.296 21.0013 118.545 20.3782C118.795 19.755 119.169 19.1885 119.644 18.7129C120.12 18.2373 120.687 17.8624 121.313 17.6108C121.938 17.3592 122.608 17.2361 123.282 17.249C124.46 17.244 125.601 17.6611 126.495 18.4239L126.937 17.5698L129.315 17.5748Z" fill="#0036AE"/>
<path d="M147.255 21.0995V27.4482H143.744V21.5241C143.744 20.4676 143.352 19.9591 142.607 19.9591C141.644 19.9591 141.148 20.6206 141.148 21.8943V27.4432H137.736V21.5191C137.736 20.4972 137.344 19.9542 136.609 19.9542C135.661 19.9542 135.12 20.6305 135.12 21.8894V27.4383H131.609V17.3229H134.092L134.589 18.4139C134.954 17.9818 135.41 17.6339 135.925 17.3943C136.439 17.1548 137 17.0294 137.568 17.0267C138.14 17.0109 138.707 17.1382 139.217 17.397C139.728 17.6557 140.164 18.0376 140.487 18.5077C140.862 18.042 141.339 17.6668 141.88 17.4102C142.422 17.1537 143.015 17.0226 143.615 17.0267C145.8 17.0267 147.25 18.7151 147.25 21.0995" fill="#0036AE"/>
<path d="M152.855 17.9062H149.35V27.4539H152.855V17.9062Z" fill="#0036AE"/>
<path d="M152.835 13.7285H149.379V16.5178H152.835V13.7285Z" fill="#0036AE"/>
<path d="M165.535 21.2771V27.4481H162.025V21.756C162.025 20.581 161.583 19.9936 160.699 19.9936C159.607 19.9936 158.976 20.7538 158.976 22.0423V27.4481H155.471V17.3228H157.929L158.425 18.3694C158.834 17.9329 159.331 17.5876 159.884 17.3562C160.437 17.1247 161.033 17.0124 161.633 17.0266C163.996 17.0266 165.55 18.6952 165.55 21.2771" fill="#0036AE"/>
<path d="M27.4134 6.11207C28.2297 6.0698 29.0481 6.0896 29.8613 6.1713L27.0609 11.6017C35.9487 12.3225 43.0589 20.5767 42.0708 29.6702L36.6091 26.8859C35.8841 35.7227 27.5872 42.7872 18.4413 41.8146L21.2416 36.3595C12.3489 35.6437 5.24365 27.3895 6.2218 18.296L11.6836 21.0803C12.0605 17.122 13.8561 13.4304 16.7429 10.679C19.6296 7.92753 23.415 6.29965 27.4085 6.09232M7.95467 12.3521L2.4929 9.57272C-3.39587 20.2953 1.66371 35.0365 12.4234 40.0818L9.62795 45.5123C20.4125 51.3672 35.2337 46.3416 40.3082 35.6388L45.7699 38.4181C51.6637 27.6955 46.6091 12.9544 35.8395 7.90904L38.6349 2.47862C27.8454 -3.37636 13.0242 1.65418 7.94474 12.3521" fill="#0036AE"/>
<path d="M165.551 34.2207H55.1191V41.0828H165.551V34.2207Z" fill="#FFE200"/>
<path d="M57.8295 36.6895V37.0696H57.2038V39.0393H56.7322V37.0696H56.1016V36.6895H57.8295Z" fill="#0036AE"/>
<path d="M58.6494 37.7709H59.0467C59.0985 37.7753 59.1508 37.7693 59.2003 37.7532C59.2497 37.7371 59.2954 37.7112 59.3346 37.6771C59.3666 37.6426 59.3914 37.6022 59.4076 37.5581C59.4238 37.5141 59.4311 37.4673 59.429 37.4204C59.4312 37.3743 59.424 37.3282 59.4078 37.2849C59.3916 37.2416 59.3667 37.202 59.3346 37.1686C59.2536 37.1035 59.1505 37.0717 59.0467 37.0798H58.6494V37.7709ZM59.3942 39.0397L58.8729 38.1214H58.6494V39.0397H58.1777V36.6898H59.0516C59.2128 36.6858 59.3727 36.7196 59.5183 36.7885C59.6378 36.8438 59.738 36.9332 59.8063 37.0452C59.872 37.1558 59.9063 37.2821 59.9056 37.4105C59.9075 37.5619 59.8585 37.7095 59.7666 37.8302C59.6667 37.9597 59.5245 38.0505 59.3644 38.0869L59.9305 39.0397H59.3942Z" fill="#0036AE"/>
<path d="M61.664 38.2149L61.3214 37.2276L60.9788 38.2149H61.664ZM61.7931 38.5901H60.8497L60.6957 39.0393H60.1992L61.0383 36.6895H61.5895L62.4385 39.0393H61.942L61.7931 38.5901Z" fill="#0036AE"/>
<path d="M63.9818 38.5754C64.0141 38.5463 64.0395 38.5104 64.0558 38.4702C64.0721 38.43 64.0791 38.3866 64.0761 38.3434C64.0789 38.299 64.0713 38.2545 64.0541 38.2134C64.0369 38.1724 64.0105 38.1357 63.9768 38.1064C63.8982 38.0481 63.8017 38.0184 63.7037 38.0225H63.237V38.6544H63.7335C63.8295 38.6608 63.9246 38.6328 64.0016 38.5754M63.2569 37.6621H63.6888C63.7816 37.667 63.8731 37.639 63.947 37.5831C63.9771 37.5554 64.0011 37.5218 64.0175 37.4844C64.0339 37.447 64.0424 37.4067 64.0424 37.3659C64.0424 37.3251 64.0339 37.2848 64.0175 37.2474C64.0011 37.21 63.9771 37.1764 63.947 37.1487C63.8731 37.0928 63.7816 37.0648 63.6888 37.0697H63.2569V37.6621ZM64.4485 38.0324C64.5348 38.1364 64.5806 38.2678 64.5776 38.4026C64.5807 38.5198 64.5478 38.6352 64.4833 38.7334C64.418 38.8322 64.3247 38.9095 64.2151 38.9555C64.0858 39.0137 63.945 39.0423 63.803 39.0395H62.7852V36.6896H63.7782C63.9196 36.6876 64.0598 36.7144 64.1903 36.7685C64.2972 36.8143 64.3886 36.8897 64.4535 36.9858C64.5141 37.0781 64.5452 37.1865 64.5428 37.2968C64.5505 37.4199 64.5116 37.5414 64.4336 37.6374C64.3588 37.7317 64.2565 37.8007 64.1407 37.8349C64.2057 37.8446 64.2682 37.867 64.3245 37.9009C64.3807 37.9348 64.4296 37.9795 64.4684 38.0324" fill="#0036AE"/>
<path d="M66.2558 38.2149L65.9132 37.2276L65.5706 38.2149H66.2558ZM66.3849 38.5901H65.4464L65.2875 39.0393H64.791L65.6401 36.6895H66.1912L67.0403 39.0393H66.5437L66.3849 38.5901Z" fill="#0036AE"/>
<path d="M68.733 36.6895V38.3383C68.7389 38.436 68.7243 38.5339 68.6901 38.6257C68.6559 38.7175 68.6029 38.8012 68.5344 38.8715C68.4619 38.9364 68.3772 38.9864 68.2851 39.0186C68.1931 39.0508 68.0956 39.0645 67.9982 39.0591C67.7979 39.0676 67.6021 38.9986 67.452 38.8666C67.3804 38.7959 67.3249 38.711 67.2889 38.6174C67.2529 38.5237 67.2374 38.4236 67.2434 38.3235H67.74C67.7355 38.4065 67.7601 38.4885 67.8095 38.5555C67.8344 38.5845 67.8658 38.6072 67.9012 38.6217C67.9365 38.6363 67.9749 38.6424 68.0131 38.6395C68.0493 38.6422 68.0857 38.6365 68.1193 38.6228C68.1529 38.6091 68.1828 38.5877 68.2067 38.5605C68.2575 38.4979 68.2823 38.4185 68.2762 38.3383V36.6895H68.733Z" fill="#0036AE"/>
<path d="M70.6004 38.2149L70.2628 37.2276L69.9202 38.2149H70.6004ZM70.7295 38.5901H69.7911L69.6371 39.0393H69.1406L69.9748 36.6895H70.5259L71.375 39.0393H70.8785L70.7295 38.5901Z" fill="#0036AE"/>
<path d="M73.7229 39.0393H73.2512L72.1787 37.425V39.0393H71.707V36.6895H72.1787L73.2512 38.2988V36.6895H73.7229V39.0393Z" fill="#0036AE"/>
<path d="M75.5717 38.4374C75.6431 38.3617 75.6979 38.2723 75.733 38.1746C75.768 38.0769 75.7824 37.9731 75.7753 37.8697C75.7825 37.7654 75.7681 37.6609 75.7331 37.5624C75.6981 37.4639 75.6432 37.3736 75.5717 37.297C75.4962 37.225 75.4065 37.1693 75.3082 37.1336C75.2099 37.0979 75.1052 37.083 75.0007 37.0896H74.6631V38.6398H75.0007C75.1047 38.6462 75.209 38.6316 75.3071 38.5968C75.4053 38.562 75.4953 38.5078 75.5717 38.4374ZM75.671 36.8379C75.8545 36.9282 76.0066 37.0708 76.108 37.2476C76.2089 37.4387 76.2616 37.6514 76.2616 37.8672C76.2616 38.083 76.2089 38.2956 76.108 38.4868C76.0049 38.661 75.8531 38.8016 75.671 38.8916C75.4681 38.9937 75.243 39.0445 75.0156 39.0397H74.1914V36.6898H75.0156C75.243 36.6849 75.4681 36.7358 75.671 36.8379Z" fill="#0036AE"/>
<path d="M78.0842 38.5457C78.194 38.4801 78.282 38.384 78.3375 38.2692C78.3996 38.1406 78.4318 37.9997 78.4318 37.857C78.4318 37.7143 78.3996 37.5734 78.3375 37.4448C78.282 37.3313 78.1938 37.2368 78.0842 37.1733C77.9689 37.1119 77.8402 37.0798 77.7094 37.0798C77.5786 37.0798 77.4498 37.1119 77.3345 37.1733C77.2247 37.2381 77.1352 37.3321 77.0763 37.4448C77.0166 37.5741 76.9856 37.7147 76.9856 37.857C76.9856 37.9993 77.0166 38.1399 77.0763 38.2692C77.1351 38.3832 77.2245 38.4789 77.3345 38.5457C77.4498 38.607 77.5786 38.6391 77.7094 38.6391C77.8402 38.6391 77.9689 38.607 78.0842 38.5457ZM77.0912 38.9061C76.9088 38.8053 76.7577 38.6567 76.6543 38.4766C76.5441 38.2895 76.4875 38.0762 76.4904 37.8595C76.4867 37.6427 76.5434 37.4291 76.6543 37.2424C76.7577 37.0622 76.9088 36.9137 77.0912 36.8129C77.279 36.7126 77.4888 36.6602 77.7019 36.6602C77.9151 36.6602 78.1249 36.7126 78.3126 36.8129C78.4937 36.9138 78.6431 37.0624 78.7446 37.2424C78.8555 37.4291 78.9122 37.6427 78.9085 37.8595C78.9114 38.0762 78.8548 38.2895 78.7446 38.4766C78.6412 38.6567 78.4901 38.8053 78.3077 38.9061C78.1208 39.0063 77.9118 39.0588 77.6994 39.0588C77.4871 39.0588 77.2781 39.0063 77.0912 38.9061Z" fill="#0036AE"/>
<path d="M81.2107 37.6672C81.2435 37.6343 81.2689 37.5949 81.2852 37.5514C81.3015 37.508 81.3082 37.4616 81.305 37.4154C81.305 37.1883 81.1759 37.0748 80.9177 37.0748H80.5454V37.7561H80.8979C81.0034 37.765 81.1083 37.7331 81.1908 37.6672M81.6874 37.7709C81.6221 37.8842 81.5256 37.9767 81.4093 38.0375C81.2541 38.1093 81.0838 38.1432 80.9128 38.1362H80.5205V39.0396H80.0488V36.6897H80.9128C81.0734 36.6862 81.2329 36.7182 81.3795 36.7835C81.5006 36.8406 81.6024 36.9315 81.6725 37.0452C81.7373 37.1577 81.7699 37.2858 81.7668 37.4154C81.7679 37.5395 81.7371 37.6619 81.6774 37.7709" fill="#0036AE"/>
<path d="M83.599 38.5457C83.7064 38.4773 83.7937 38.3819 83.8522 38.2692C83.912 38.1399 83.9429 37.9993 83.9429 37.857C83.9429 37.7147 83.912 37.5741 83.8522 37.4448C83.7936 37.3335 83.7062 37.2398 83.599 37.1733C83.4829 37.1115 83.3533 37.0791 83.2216 37.0791C83.09 37.0791 82.9603 37.1115 82.8443 37.1733C82.7347 37.2368 82.6465 37.3313 82.591 37.4448C82.5289 37.5734 82.4967 37.7143 82.4967 37.857C82.4967 37.9997 82.5289 38.1406 82.591 38.2692C82.6465 38.384 82.7345 38.4801 82.8443 38.5457C82.9605 38.6071 83.09 38.6391 83.2216 38.6391C83.3532 38.6391 83.4828 38.6071 83.599 38.5457ZM82.6059 38.9061C82.422 38.8056 82.2692 38.6571 82.164 38.4766C82.0539 38.2896 81.9972 38.0762 82.0002 37.8595C81.9965 37.6427 82.0532 37.4291 82.164 37.2424C82.2692 37.0619 82.422 36.9134 82.6059 36.8129C82.7928 36.7126 83.0018 36.6602 83.2142 36.6602C83.4265 36.6602 83.6355 36.7126 83.8224 36.8129C84.0037 36.915 84.1545 37.0633 84.2594 37.2424C84.3664 37.4305 84.4212 37.6434 84.4182 37.8595C84.4205 38.0755 84.3657 38.2882 84.2594 38.4766C84.1545 38.6557 84.0037 38.8039 83.8224 38.9061C83.6357 39.0091 83.4252 39.0618 83.2117 39.0591C82.9998 39.0619 82.7908 39.0091 82.6059 38.9061Z" fill="#0036AE"/>
<path d="M85.2524 37.7709H85.6496C85.7015 37.7753 85.7537 37.7693 85.8032 37.7532C85.8527 37.7371 85.8984 37.7112 85.9376 37.6771C85.9696 37.6426 85.9944 37.6022 86.0106 37.5581C86.0268 37.5141 86.034 37.4673 86.0319 37.4204C86.0342 37.3743 86.027 37.3282 86.0108 37.2849C85.9946 37.2416 85.9697 37.202 85.9376 37.1686C85.8566 37.1035 85.7535 37.0717 85.6496 37.0798H85.2524V37.7709ZM85.9972 39.0397L85.4758 38.1214H85.2524V39.0397H84.7559V36.6898H85.6397C85.8009 36.6858 85.9608 36.7196 86.1064 36.7885C86.2272 36.8438 86.329 36.933 86.3994 37.0452C86.4612 37.1572 86.4936 37.2828 86.4937 37.4105C86.4951 37.561 86.4482 37.7081 86.3596 37.8302C86.2589 37.9588 86.117 38.0493 85.9574 38.0869L86.5185 39.0397H85.9972Z" fill="#0036AE"/>
<path d="M88.217 36.6895V38.1458C88.2134 38.2114 88.2229 38.277 88.2451 38.3389C88.2672 38.4008 88.3016 38.4577 88.3461 38.5062C88.392 38.5503 88.4466 38.5845 88.5064 38.6066C88.5662 38.6287 88.63 38.6382 88.6937 38.6345C88.761 38.6435 88.8295 38.6369 88.8939 38.6152C88.9582 38.5936 89.0167 38.5575 89.0647 38.5097C89.1127 38.462 89.149 38.4038 89.1708 38.3399C89.1926 38.2759 89.1992 38.2078 89.1902 38.1409V36.6895H89.6867V38.1409C89.6896 38.314 89.645 38.4847 89.5577 38.6345C89.4736 38.7687 89.3531 38.8765 89.2101 38.9456C89.0547 39.0172 88.8848 39.0526 88.7136 39.0492C88.5421 39.0548 88.3718 39.0193 88.217 38.9456C88.0744 38.8778 87.9552 38.7696 87.8744 38.6345C87.7888 38.4842 87.7459 38.3136 87.7503 38.1409V36.6895H88.217Z" fill="#0036AE"/>
<path d="M92.1302 39.0393H91.6536L90.586 37.425V39.0393H90.1094V36.6895H90.586L91.6536 38.2988V36.6895H92.1302V39.0393Z" fill="#0036AE"/>
<path d="M93.912 38.2149L93.5694 37.2276L93.2268 38.2149H93.912ZM94.0411 38.5901H93.0977L92.9438 39.0393H92.4473L93.3112 36.6895H93.8623L94.7114 39.0393H94.2149L94.0411 38.5901Z" fill="#0036AE"/>
<path d="M96.2901 37.0696V37.6571H97.0845V38.0322H96.2901V38.6543H97.1888V39.0393H95.8184V36.6895H97.1888V37.0696H96.2901Z" fill="#0036AE"/>
<path d="M99.638 39.0393H99.1663L98.0938 37.425V39.0393H97.6172V36.6895H98.0938L99.1663 38.2988V36.6895H99.638V39.0393Z" fill="#0036AE"/>
<path d="M100.575 37.0696V37.6571H101.37V38.0322H100.575V38.6543H101.469V39.0393H100.104V36.6895H101.469V37.0696H100.575Z" fill="#0036AE"/>
<path d="M102.374 37.7709H102.771C102.823 37.7753 102.875 37.7693 102.925 37.7532C102.974 37.7371 103.02 37.7112 103.059 37.6771C103.091 37.6426 103.116 37.6022 103.132 37.5581C103.148 37.5141 103.156 37.4673 103.154 37.4204C103.156 37.3743 103.149 37.3282 103.132 37.2849C103.116 37.2416 103.091 37.202 103.059 37.1686C102.978 37.1035 102.875 37.0717 102.771 37.0798H102.374V37.7709ZM103.119 39.0397L102.597 38.1214H102.374V39.0397H101.902V36.6898H102.786C102.947 36.6858 103.107 36.7196 103.253 36.7885C103.372 36.8438 103.473 36.9332 103.541 37.0452C103.607 37.1558 103.641 37.2821 103.64 37.4105C103.642 37.5619 103.593 37.7095 103.501 37.8302C103.401 37.9597 103.259 38.0505 103.099 38.0869L103.665 39.0397H103.119Z" fill="#0036AE"/>
<path d="M105.725 37.3961C105.674 37.3014 105.596 37.224 105.501 37.1739C105.399 37.1183 105.284 37.091 105.168 37.0949C105.04 37.0909 104.913 37.1231 104.803 37.1877C104.692 37.2524 104.602 37.3469 104.543 37.4602C104.481 37.5844 104.45 37.7216 104.453 37.8601C104.449 38.0025 104.481 38.1437 104.548 38.2699C104.605 38.3835 104.695 38.4779 104.806 38.5414C104.923 38.6064 105.055 38.6388 105.188 38.6352C105.35 38.6417 105.508 38.591 105.635 38.492C105.755 38.3891 105.834 38.2475 105.859 38.0922H105.049V37.7367H106.325V38.1465C106.29 38.3134 106.218 38.4704 106.114 38.6062C106.01 38.742 105.877 38.853 105.725 38.9314C105.554 39.0178 105.365 39.0618 105.173 39.0598C104.958 39.0613 104.747 39.0087 104.558 38.9067C104.378 38.8062 104.229 38.6595 104.126 38.4822C104.021 38.2921 103.967 38.0791 103.967 37.8626C103.967 37.6461 104.021 37.4331 104.126 37.243C104.227 37.0631 104.377 36.9144 104.558 36.8135C104.745 36.7122 104.955 36.6595 105.168 36.6605C105.414 36.6548 105.656 36.7218 105.864 36.853C106.057 36.9828 106.201 37.1743 106.271 37.3961H105.725Z" fill="#0036AE"/>
<path d="M107.136 39.0391H106.664V36.6892H107.136V39.0391ZM107.27 36.2054L106.49 36.5559V36.2202L107.27 35.8203V36.2054Z" fill="#0036AE"/>
<path d="M108.922 38.2149L108.579 37.2276L108.237 38.2149H108.922ZM109.051 38.5901H108.112L107.954 39.0393H107.457L108.306 36.6895H108.857L109.706 39.0393H109.21L109.051 38.5901Z" fill="#0036AE"/>
<path d="M112.706 36.6895L111.907 38.2198V39.0393H111.435V38.2198L110.631 36.6895H111.167L111.674 37.7657L112.18 36.6895H112.706Z" fill="#0036AE"/>
<path d="M116.355 36.6895V39.0393H115.883V37.509L115.253 39.0393H114.89L114.255 37.509V39.0393H113.783V36.6895H114.319L115.069 38.4371L115.824 36.6895H116.355Z" fill="#0036AE"/>
<path d="M117.294 36.6895H116.822V39.0344H117.294V36.6895Z" fill="#0036AE"/>
<path d="M119.781 39.0393H119.309L118.236 37.425V39.0393H117.76V36.6895H118.236L119.309 38.2988V36.6895H119.781V39.0393Z" fill="#0036AE"/>
<path d="M120.72 37.0696V37.6571H121.514V38.0322H120.72V38.6543H121.618V39.0393H120.248V36.6895H121.618V37.0696H120.72Z" fill="#0036AE"/>
<path d="M122.517 37.7709H122.914C122.966 37.7753 123.018 37.7693 123.067 37.7532C123.117 37.7371 123.163 37.7112 123.202 37.6771C123.234 37.6426 123.259 37.6022 123.275 37.5581C123.291 37.5141 123.298 37.4673 123.296 37.4204C123.298 37.3743 123.291 37.3282 123.275 37.2849C123.259 37.2416 123.234 37.202 123.202 37.1686C123.121 37.1035 123.018 37.0717 122.914 37.0798H122.517V37.7709ZM123.261 39.0397L122.74 38.1214H122.517V39.0397H122.045V36.6898H122.929C123.09 36.6858 123.25 36.7196 123.395 36.7885C123.515 36.8438 123.615 36.9332 123.683 37.0452C123.754 37.1656 123.788 37.3036 123.782 37.4428C123.776 37.582 123.73 37.7164 123.649 37.8302C123.547 37.9576 123.405 38.0479 123.247 38.0869L123.808 39.0397H123.261Z" fill="#0036AE"/>
<path d="M124.686 39.0391H124.19V36.6892H124.686V39.0391ZM124.816 36.2054L124.041 36.5559V36.2202L124.816 35.8203V36.2054Z" fill="#0036AE"/>
<path d="M126.469 38.2149L126.126 37.2276L125.788 38.2149H126.469ZM126.598 38.5901H125.659L125.5 39.0393H125.004L125.853 36.6895H126.404L127.253 39.0393H126.757L126.598 38.5901Z" fill="#0036AE"/>
<path d="M128.749 38.9754C128.622 38.9279 128.513 38.8436 128.436 38.7335C128.355 38.6269 128.313 38.4964 128.317 38.3632H128.813C128.813 38.4062 128.823 38.4487 128.841 38.4878C128.859 38.5269 128.885 38.5619 128.917 38.5903C128.988 38.6493 129.079 38.6793 129.171 38.6742C129.264 38.681 129.356 38.6528 129.429 38.5952C129.46 38.5705 129.485 38.5389 129.503 38.503C129.52 38.467 129.529 38.4277 129.528 38.3879C129.528 38.3245 129.505 38.2632 129.464 38.2151C129.417 38.1694 129.361 38.1341 129.3 38.1114C129.222 38.0776 129.142 38.048 129.061 38.0226C128.934 37.9878 128.809 37.9432 128.689 37.8893C128.591 37.8453 128.505 37.7773 128.441 37.6918C128.367 37.5884 128.33 37.4631 128.336 37.3364C128.334 37.207 128.37 37.0797 128.441 36.971C128.513 36.8656 128.615 36.7833 128.734 36.7341C128.872 36.6787 129.021 36.6518 129.171 36.6551C129.381 36.6465 129.589 36.7072 129.761 36.8279C129.838 36.8864 129.9 36.961 129.944 37.0464C129.988 37.1318 130.012 37.2257 130.015 37.3216H129.493C129.492 37.283 129.481 37.2454 129.463 37.2112C129.445 37.1771 129.42 37.1473 129.389 37.1241C129.317 37.0681 129.227 37.0401 129.136 37.0451C129.055 37.039 128.975 37.0638 128.912 37.1142C128.885 37.1397 128.863 37.1712 128.849 37.2063C128.835 37.2413 128.83 37.2791 128.833 37.3166C128.832 37.3456 128.836 37.3745 128.847 37.4016C128.857 37.4287 128.873 37.4536 128.893 37.4746C128.938 37.5159 128.99 37.5493 129.046 37.5733C129.132 37.6095 129.22 37.6408 129.31 37.6671C129.438 37.7029 129.564 37.7474 129.687 37.8004C129.786 37.846 129.871 37.9156 129.935 38.0028C130.009 38.1047 130.045 38.2282 130.04 38.3533C130.041 38.4766 130.009 38.5979 129.945 38.7038C129.874 38.8136 129.775 38.9023 129.657 38.9606C129.516 39.0267 129.361 39.0588 129.205 39.0544C129.054 39.0585 128.903 39.0299 128.763 38.9704" fill="#0036AE"/>
<path d="M130.909 37.0696V37.6571H131.704V38.0322H130.909V38.6543H131.808V39.0393H130.438V36.6895H131.808V37.0696H130.909Z" fill="#0036AE"/>
<path d="M133.878 37.3961C133.828 37.3014 133.75 37.224 133.655 37.1739C133.553 37.1183 133.438 37.091 133.322 37.0949C133.192 37.0918 133.063 37.1243 132.95 37.1887C132.84 37.2523 132.752 37.3468 132.697 37.4602C132.635 37.5844 132.604 37.7216 132.607 37.8601C132.603 38.0019 132.634 38.1425 132.697 38.2699C132.756 38.3838 132.848 38.4782 132.96 38.5414C133.076 38.6064 133.209 38.6388 133.342 38.6352C133.502 38.641 133.659 38.5902 133.784 38.492C133.907 38.3908 133.988 38.2486 134.013 38.0922H133.203V37.7367H134.479V38.1465C134.448 38.3101 134.378 38.464 134.276 38.5957C134.171 38.7379 134.033 38.853 133.874 38.9314C133.705 39.0183 133.517 39.0624 133.327 39.0598C133.112 39.0613 132.901 39.0087 132.712 38.9067C132.531 38.8065 132.38 38.6599 132.275 38.4822C132.174 38.291 132.121 38.0784 132.121 37.8626C132.121 37.6467 132.174 37.4341 132.275 37.243C132.378 37.0629 132.529 36.9143 132.712 36.8135C132.899 36.7122 133.109 36.6595 133.322 36.6605C133.568 36.6548 133.81 36.7218 134.018 36.853C134.21 36.983 134.352 37.1747 134.42 37.3961H133.878Z" fill="#0036AE"/>
<path d="M135.297 36.6895V38.1458C135.293 38.211 135.302 38.2765 135.323 38.3384C135.344 38.4002 135.378 38.4573 135.421 38.5062C135.52 38.589 135.645 38.6344 135.774 38.6344C135.903 38.6344 136.028 38.589 136.126 38.5062C136.17 38.4573 136.204 38.4002 136.225 38.3384C136.246 38.2765 136.255 38.211 136.251 38.1458V36.6895H136.747V38.1409C136.752 38.3143 136.708 38.4856 136.618 38.6345C136.535 38.7698 136.414 38.8779 136.27 38.9456C136.115 39.0177 135.945 39.0532 135.774 39.0492C135.603 39.0543 135.432 39.0187 135.277 38.9456C135.135 38.8788 135.018 38.7702 134.94 38.6345C134.852 38.4847 134.808 38.314 134.811 38.1409V36.6895H135.297Z" fill="#0036AE"/>
<path d="M137.662 37.7708H138.054C138.106 37.7753 138.159 37.7692 138.208 37.7531C138.258 37.737 138.303 37.7111 138.342 37.677C138.375 37.6432 138.401 37.6029 138.417 37.5587C138.433 37.5144 138.44 37.4673 138.437 37.4203C138.44 37.3741 138.433 37.3277 138.417 37.2843C138.401 37.2409 138.375 37.2014 138.342 37.1686C138.261 37.1034 138.158 37.0716 138.054 37.0797H137.662V37.7708ZM138.402 39.0396L137.906 38.1214H137.682V39.0396H137.186V36.6897H138.074C138.235 36.6863 138.395 36.7201 138.541 36.7884C138.661 36.8438 138.761 36.9331 138.829 37.0451C138.887 37.1394 138.922 37.246 138.93 37.3562C138.938 37.4663 138.92 37.5768 138.877 37.6786C138.834 37.7804 138.767 37.8705 138.681 37.9415C138.596 38.0124 138.495 38.0623 138.387 38.0868L138.953 39.0396H138.402Z" fill="#0036AE"/>
<path d="M140.671 38.2149L140.328 37.2276L139.99 38.2149H140.671ZM140.8 38.5901H139.861L139.707 39.0393H139.211L140.06 36.6895H140.611L141.46 39.0393H140.964L140.8 38.5901Z" fill="#0036AE"/>
<path d="M144.453 36.6895L143.659 38.2198V39.0393H143.182V38.2198L142.383 36.6895H142.914L143.426 37.7657L143.927 36.6895H144.453Z" fill="#0036AE"/>
<path d="M145.904 38.9764C145.778 38.929 145.669 38.8447 145.592 38.7345C145.514 38.6268 145.472 38.4971 145.472 38.3643H145.969C145.971 38.4071 145.981 38.4492 145.998 38.4882C146.016 38.5271 146.042 38.5622 146.073 38.5914C146.144 38.6495 146.235 38.6794 146.327 38.6753C146.421 38.6818 146.515 38.6537 146.59 38.5963C146.62 38.5713 146.645 38.5396 146.661 38.5036C146.678 38.4676 146.685 38.4284 146.684 38.389C146.686 38.3252 146.663 38.2631 146.619 38.2162C146.575 38.1706 146.52 38.1352 146.461 38.1125C146.373 38.0796 146.283 38.0516 146.192 38.0286C146.065 37.9938 145.941 37.9492 145.82 37.8953C145.723 37.85 145.638 37.7823 145.572 37.6978C145.498 37.5944 145.461 37.4692 145.468 37.3424C145.464 37.2121 145.502 37.0842 145.577 36.9771C145.648 36.8706 145.75 36.788 145.87 36.7401C146.007 36.6841 146.154 36.6572 146.302 36.6611C146.513 36.6517 146.72 36.7125 146.893 36.8339C146.969 36.8924 147.031 36.967 147.075 37.0524C147.119 37.1378 147.143 37.2318 147.146 37.3276H146.624C146.622 37.2896 146.613 37.2525 146.595 37.2185C146.578 37.1846 146.554 37.1545 146.525 37.1301C146.451 37.0742 146.36 37.0462 146.267 37.0511C146.188 37.0458 146.11 37.0705 146.048 37.1202C146.019 37.1447 145.996 37.1759 145.981 37.2111C145.967 37.2464 145.961 37.2846 145.964 37.3226C145.963 37.3516 145.968 37.3805 145.978 37.4076C145.988 37.4347 146.004 37.4595 146.024 37.4806C146.07 37.5232 146.124 37.5568 146.183 37.5793C146.266 37.6165 146.353 37.6478 146.441 37.6731C146.57 37.7081 146.696 37.7526 146.818 37.8064C146.918 37.8507 147.003 37.9206 147.066 38.0088C147.143 38.1091 147.182 38.2333 147.176 38.3593C147.176 38.483 147.141 38.6043 147.076 38.7099C147.007 38.8208 146.907 38.9098 146.788 38.9666C146.647 39.0327 146.492 39.0648 146.336 39.0604C146.185 39.0645 146.034 39.0359 145.895 38.9764" fill="#0036AE"/>
<path d="M149.061 38.5457C149.171 38.4801 149.259 38.384 149.314 38.2692C149.376 38.1406 149.408 37.9997 149.408 37.857C149.408 37.7143 149.376 37.5734 149.314 37.4448C149.258 37.3313 149.17 37.2368 149.061 37.1733C148.945 37.1119 148.817 37.0798 148.686 37.0798C148.555 37.0798 148.426 37.1119 148.311 37.1733C148.2 37.2368 148.11 37.3312 148.053 37.4448C147.993 37.5741 147.962 37.7147 147.962 37.857C147.962 37.9993 147.993 38.1399 148.053 38.2692C148.11 38.3843 148.2 38.4804 148.311 38.5457C148.426 38.607 148.555 38.6391 148.686 38.6391C148.817 38.6391 148.945 38.607 149.061 38.5457ZM148.068 38.9061C147.885 38.804 147.733 38.6559 147.626 38.4766C147.519 38.2882 147.465 38.0755 147.467 37.8595C147.464 37.6434 147.519 37.4305 147.626 37.2424C147.733 37.0631 147.885 36.9149 148.068 36.8129C148.255 36.7126 148.464 36.6602 148.676 36.6602C148.888 36.6602 149.097 36.7126 149.284 36.8129C149.467 36.9137 149.618 37.0622 149.721 37.2424C149.832 37.4291 149.889 37.6427 149.885 37.8595C149.888 38.0762 149.831 38.2896 149.721 38.4766C149.618 38.6567 149.467 38.8053 149.284 38.9061C149.097 39.0063 148.888 39.0588 148.676 39.0588C148.464 39.0588 148.255 39.0063 148.068 38.9061Z" fill="#0036AE"/>
<path d="M150.616 38.9751C150.49 38.9283 150.381 38.8448 150.304 38.7356C150.227 38.6263 150.185 38.4964 150.184 38.363H150.68C150.686 38.4488 150.723 38.5297 150.784 38.5901C150.856 38.6474 150.946 38.6772 151.038 38.674C151.132 38.6805 151.226 38.6524 151.301 38.595C151.331 38.57 151.356 38.5383 151.372 38.5023C151.389 38.4663 151.396 38.4271 151.395 38.3877C151.397 38.3238 151.374 38.2618 151.331 38.2149C151.286 38.1693 151.232 38.1339 151.172 38.1112C151.086 38.0768 150.998 38.0472 150.909 38.0223C150.781 37.9875 150.657 37.943 150.536 37.8891C150.439 37.8438 150.354 37.7761 150.288 37.6916C150.216 37.5875 150.181 37.4623 150.189 37.3361C150.186 37.2067 150.222 37.0795 150.293 36.9708C150.364 36.8643 150.466 36.7818 150.586 36.7339C150.723 36.6779 150.87 36.651 151.018 36.6549C151.23 36.6477 151.439 36.7082 151.614 36.8276C151.688 36.8873 151.749 36.9623 151.792 37.0475C151.835 37.1327 151.859 37.2261 151.862 37.3213H151.34C151.34 37.2831 151.33 37.2456 151.313 37.2114C151.296 37.1773 151.271 37.1473 151.241 37.1239C151.168 37.0672 151.076 37.0391 150.983 37.0449C150.904 37.0396 150.826 37.0643 150.765 37.114C150.735 37.1385 150.712 37.1697 150.697 37.2049C150.683 37.2401 150.677 37.2784 150.68 37.3164C150.679 37.3458 150.684 37.3752 150.695 37.4025C150.706 37.4297 150.723 37.4543 150.745 37.4744C150.788 37.5178 150.841 37.5515 150.899 37.5731C150.984 37.6109 151.072 37.6422 151.162 37.6669C151.289 37.7025 151.413 37.7471 151.534 37.8002C151.634 37.8456 151.721 37.9152 151.787 38.0026C151.861 38.1045 151.897 38.2279 151.892 38.3531C151.892 38.4768 151.857 38.5981 151.792 38.7036C151.723 38.8146 151.623 38.9036 151.504 38.9603C151.365 39.0257 151.212 39.0578 151.057 39.0541C150.904 39.0582 150.752 39.0296 150.611 38.9702" fill="#0036AE"/>
<path d="M153.913 36.6895V37.0696H153.282V39.0393H152.81V37.0696H152.18V36.6895H153.913Z" fill="#0036AE"/>
<path d="M154.728 37.0696V37.6571H155.522V38.0322H154.728V38.6543H155.626V39.0393H154.256V36.6895H155.626V37.0696H154.728Z" fill="#0036AE"/>
<path d="M158.074 39.0393H157.597L156.529 37.425V39.0393H156.053V36.6895H156.529L157.597 38.2988V36.6895H158.074V39.0393Z" fill="#0036AE"/>
<path d="M159.013 36.6895H158.541V39.0344H159.013V36.6895Z" fill="#0036AE"/>
<path d="M160.695 38.5754C160.728 38.5466 160.754 38.5108 160.771 38.4706C160.788 38.4305 160.796 38.387 160.794 38.3434C160.796 38.2986 160.787 38.254 160.769 38.213C160.751 38.1719 160.724 38.1355 160.69 38.1064C160.611 38.0473 160.515 38.0176 160.417 38.0225H159.95V38.6544H160.446C160.542 38.6608 160.638 38.6328 160.715 38.5754M159.97 37.6621H160.402C160.496 37.6661 160.589 37.6382 160.665 37.5831C160.722 37.525 160.754 37.4471 160.754 37.3659C160.754 37.2847 160.722 37.2068 160.665 37.1487C160.589 37.0935 160.496 37.0657 160.402 37.0697H159.97V37.6621ZM161.161 38.0324C161.248 38.1364 161.293 38.2678 161.291 38.4026C161.293 38.5191 161.262 38.6338 161.201 38.7334C161.133 38.8312 161.038 38.9081 160.928 38.9555C160.799 39.0137 160.658 39.0423 160.516 39.0395H159.498V36.6896H160.491C160.632 36.6876 160.773 36.7144 160.903 36.7685C161.011 36.8131 161.103 36.8887 161.166 36.9858C161.227 37.0781 161.258 37.1865 161.256 37.2968C161.263 37.4199 161.224 37.5414 161.147 37.6374C161.073 37.7327 160.97 37.8019 160.854 37.8349C160.919 37.8446 160.981 37.867 161.037 37.9009C161.094 37.9348 161.143 37.9795 161.181 38.0324" fill="#0036AE"/>
<path d="M162.124 38.6642H162.904V39.0393H161.652V36.6895H162.124V38.6642Z" fill="#0036AE"/>
<path d="M163.68 37.0696V37.6571H164.474V38.0322H163.68V38.6543H164.574V39.0393H163.203V36.6895H164.574V37.0696H163.68Z" fill="#0036AE"/>
</g>
<defs>
<clipPath id="clip0_4159_1322">
<rect width="165.551" height="48" fill="white"/>
</clipPath>
</defs>
</svg>
