<svg width="202" height="22" viewBox="0 0 202 22" fill="none" xmlns="http://www.w3.org/2000/svg">
<rect x="0.5" y="10.5146" width="82.5" height="0.970588" fill="#4E4E4E" fill-opacity="0.25"/>
<path d="M100.999 16.098C100.094 16.098 99.2677 15.888 98.5211 15.468C97.7744 15.0387 97.1817 14.446 96.7431 13.69C96.3137 12.9247 96.0991 12.066 96.0991 11.114C96.0991 10.162 96.3137 9.308 96.7431 8.552C97.1817 7.78667 97.7744 7.194 98.5211 6.774C99.2677 6.34467 100.094 6.13 100.999 6.13C101.914 6.13 102.744 6.34467 103.491 6.774C104.238 7.194 104.826 7.782 105.255 8.538C105.684 9.294 105.899 10.1527 105.899 11.114C105.899 12.0753 105.684 12.934 105.255 13.69C104.826 14.446 104.238 15.0387 103.491 15.468C102.744 15.888 101.914 16.098 100.999 16.098ZM100.999 14.992C101.68 14.992 102.292 14.8333 102.833 14.516C103.384 14.1987 103.813 13.746 104.121 13.158C104.438 12.57 104.597 11.8887 104.597 11.114C104.597 10.33 104.438 9.64867 104.121 9.07C103.813 8.482 103.388 8.02933 102.847 7.712C102.306 7.39467 101.69 7.236 100.999 7.236C100.308 7.236 99.6924 7.39467 99.1511 7.712C98.6097 8.02933 98.1804 8.482 97.8631 9.07C97.5551 9.64867 97.4011 10.33 97.4011 11.114C97.4011 11.8887 97.5551 12.57 97.8631 13.158C98.1804 13.746 98.6097 14.1987 99.1511 14.516C99.7017 14.8333 100.318 14.992 100.999 14.992Z" fill="#6D6D6D"/>
<rect x="119" y="10.5146" width="82.5" height="0.970588" fill="#4E4E4E" fill-opacity="0.25"/>
</svg>
